<svg xmlns="http://www.w3.org/2000/svg" preserveAspectRatio="xMidYMid" viewBox="0 0 256 246">
  <defs>
    <linearGradient id="a" x1="99.14%" x2="33.86%" y1="112.71%" y2="37.75%">
      <stop offset="18%" stop-color="#0052CC"/>
      <stop offset="100%" stop-color="#2684FF"/>
    </linearGradient>
    <linearGradient id="b" x1=".93%" x2="66.18%" y1="-12.58%" y2="62.31%">
      <stop offset="18%" stop-color="#0052CC"/>
      <stop offset="100%" stop-color="#2684FF"/>
    </linearGradient>
  </defs>
  <path fill="url(#a)" d="M9.26 187.33c-2.64 4.3-5.6 9.3-8.13 13.29a8.13 8.13 0 0 0 2.73 11.05l52.82 32.5a8.13 8.13 0 0 0 11.25-2.76c2.12-3.53 4.84-8.12 7.8-13.04 20.93-34.54 41.98-30.31 79.93-12.2l52.38 24.92a8.13 8.13 0 0 0 10.93-4.07l25.15-56.88a8.13 8.13 0 0 0-4.06-10.65 6382.35 6382.35 0 0 1-52.83-25.1C116.04 109.8 55.54 112.03 9.26 187.32Z"/>
  <path fill="url(#b)" d="M246.12 58.23c2.64-4.3 5.6-9.3 8.12-13.29a8.13 8.13 0 0 0-2.72-11.05L198.7 1.4a8.13 8.13 0 0 0-11.58 2.68c-2.12 3.53-4.84 8.12-7.8 13.04-20.93 34.54-41.98 30.31-79.93 12.2L47.18 4.5a8.13 8.13 0 0 0-10.93 4.07L11.09 65.46a8.13 8.13 0 0 0 4.07 10.65c11.05 5.2 33.03 15.56 52.82 25.11 71.35 34.54 131.85 32.22 178.14-42.99Z"/>
</svg>
