<svg width="37" height="35" viewBox="0 0 37 35" fill="none" xmlns="http://www.w3.org/2000/svg">
<g clip-path="url(#clip0_81_725)">
<path d="M18.5 21.8996V18.5183C22.1814 18.5183 25.039 14.9688 23.6254 11.2019C23.1068 9.81771 21.9576 8.70048 20.5237 8.19624C16.6492 6.83183 12.9983 9.60019 12.9983 13.1793H9.53051C9.53051 7.47449 15.2051 3.02533 21.3576 4.89398C24.0424 5.7146 26.1881 7.79087 27.022 10.401C28.9441 16.3827 24.3678 21.8996 18.5 21.8996Z" fill="#0080FF"/>
<path fill-rule="evenodd" clip-rule="evenodd" d="M18.5102 18.538H15.0424V15.1665H18.5102V18.538Z" fill="#0080FF"/>
<path fill-rule="evenodd" clip-rule="evenodd" d="M15.0424 21.1186H12.3881V18.5381H15.0424V21.1186Z" fill="#0080FF"/>
<path fill-rule="evenodd" clip-rule="evenodd" d="M12.3881 18.5381H10.161V16.3728H12.3881V18.5381Z" fill="#0080FF"/>
<path d="M3.67288 25.3205C3.22542 25.014 2.65593 24.8657 2.00508 24.8657H0.581356V29.2654H2.01525C2.6661 29.2654 3.23559 29.1072 3.68305 28.781C3.92712 28.6129 4.12034 28.3756 4.26271 28.079C4.39492 27.7824 4.4661 27.4265 4.4661 27.0409C4.4661 26.6553 4.39492 26.3092 4.26271 26.0126C4.12034 25.716 3.92712 25.4787 3.67288 25.3205ZM1.41525 25.6072H1.86271C2.36102 25.6072 2.7678 25.7061 3.08305 25.894C3.42881 26.1016 3.6017 26.4872 3.6017 27.0409C3.6017 27.6143 3.42881 28.0197 3.08305 28.2372C2.78814 28.425 2.38136 28.5239 1.87288 28.5239H1.41525V25.6072Z" fill="#0080FF"/>
<path d="M5.45254 24.8064C5.31017 24.8064 5.19831 24.8558 5.09661 24.9448C5.00509 25.0338 4.95424 25.1426 4.95424 25.281C4.95424 25.4194 5.00509 25.5281 5.09661 25.627C5.18814 25.716 5.31017 25.7654 5.45254 25.7654C5.58475 25.7654 5.70678 25.716 5.80848 25.627C5.9 25.538 5.95085 25.4194 5.95085 25.281C5.95085 25.1426 5.9 25.0338 5.80848 24.9448C5.70678 24.8558 5.58475 24.8064 5.45254 24.8064Z" fill="#0080FF"/>
<path d="M5.84915 26.1609H5.04576V29.2654H5.84915V26.1609Z" fill="#0080FF"/>
<path d="M8.7678 26.4179C8.52373 26.2103 8.25932 26.0818 7.96441 26.0818C7.51695 26.0818 7.15085 26.2301 6.8661 26.5267C6.58136 26.8134 6.42881 27.1891 6.42881 27.6439C6.42881 28.079 6.57119 28.4547 6.85593 28.7513C7.14068 29.038 7.51695 29.1863 7.95424 29.1863C8.25932 29.1863 8.5339 29.1072 8.74746 28.9391V29.0083C8.74746 29.2654 8.67627 29.4631 8.5339 29.6016C8.39153 29.74 8.19831 29.8092 7.95424 29.8092C7.58814 29.8092 7.35424 29.6708 7.06949 29.2951L6.52034 29.8092L6.53051 29.829C6.65254 29.9872 6.82542 30.1453 7.06949 30.2937C7.30339 30.442 7.60848 30.5211 7.96441 30.5211C8.44237 30.5211 8.82881 30.3826 9.11356 30.0959C9.39831 29.8092 9.54068 29.4335 9.54068 28.9688V26.151H8.74746V26.4179H8.7678ZM8.55424 28.2569C8.41186 28.4151 8.22881 28.4843 8.00509 28.4843C7.77119 28.4843 7.59831 28.4052 7.45593 28.2569C7.31356 28.0987 7.25254 27.901 7.25254 27.6538C7.25254 27.3968 7.32373 27.199 7.45593 27.0408C7.58814 26.8826 7.78136 26.8134 8.00509 26.8134C8.23898 26.8134 8.41186 26.8925 8.55424 27.0408C8.69661 27.199 8.7678 27.4066 8.7678 27.6538C8.7678 27.901 8.69661 28.0987 8.55424 28.2569Z" fill="#0080FF"/>
<path d="M11.0458 26.1609H10.2424V29.2654H11.0458V26.1609Z" fill="#0080FF"/>
<path d="M10.6492 24.8064C10.5068 24.8064 10.3949 24.8558 10.2932 24.9448C10.2017 25.0338 10.1508 25.1426 10.1508 25.281C10.1508 25.4194 10.2017 25.5281 10.2932 25.627C10.3847 25.716 10.5068 25.7654 10.6492 25.7654C10.7814 25.7654 10.9034 25.716 11.0051 25.627C11.0966 25.538 11.1475 25.4194 11.1475 25.281C11.1475 25.1426 11.0966 25.0338 11.0051 24.9448C10.9034 24.8558 10.7915 24.8064 10.6492 24.8064Z" fill="#0080FF"/>
<path d="M12.8051 25.3206H12.0119V26.161H11.5542V26.8728H12.0119V28.1581C12.0119 28.5635 12.0932 28.8502 12.2559 29.0183C12.4186 29.1864 12.7136 29.2655 13.1203 29.2655C13.2525 29.2655 13.3847 29.2655 13.5068 29.2556H13.5475V28.5437L13.2729 28.5536C13.0797 28.5536 12.9576 28.5239 12.8966 28.4547C12.8356 28.3855 12.8051 28.2471 12.8051 28.0395V26.8629H13.5576V26.1511H12.8051V25.3206Z" fill="#0080FF"/>
<path d="M18.1237 24.8557H17.3203V29.2653H18.1237V24.8557Z" fill="#0080FF"/>
<path d="M26.239 28.1581C26.0966 28.3163 25.9441 28.4547 25.8322 28.5239C25.7203 28.5931 25.578 28.6326 25.4153 28.6326C25.1814 28.6326 24.9881 28.5535 24.8356 28.3756C24.6831 28.2075 24.6017 27.9801 24.6017 27.723C24.6017 27.4561 24.6831 27.2386 24.8356 27.0705C24.9881 26.9024 25.1814 26.8134 25.4153 26.8134C25.6695 26.8134 25.9441 26.9716 26.178 27.2386L26.7068 26.7442C26.361 26.3092 25.9237 26.1016 25.3949 26.1016C24.9576 26.1016 24.5712 26.2598 24.2559 26.5663C23.9407 26.8728 23.7881 27.2583 23.7881 27.723C23.7881 28.1877 23.9508 28.5733 24.2559 28.8798C24.5712 29.1863 24.9475 29.3445 25.3949 29.3445C25.9746 29.3445 26.4424 29.0973 26.7678 28.6524L26.239 28.1581Z" fill="#0080FF"/>
<path d="M29.5441 26.596C29.4322 26.4378 29.2797 26.3192 29.0864 26.2302C28.8932 26.1412 28.6695 26.0918 28.4254 26.0918C27.978 26.0918 27.6119 26.25 27.3373 26.5664C27.0729 26.8828 26.9305 27.2684 26.9305 27.733C26.9305 28.2076 27.0831 28.5932 27.3678 28.8898C27.6627 29.1864 28.0492 29.3347 28.5271 29.3347C29.0661 29.3347 29.5136 29.1172 29.8492 28.702L29.8695 28.6822L29.3407 28.1878C29.2898 28.2472 29.2186 28.3065 29.1576 28.3658C29.0763 28.435 29.0051 28.4943 28.9237 28.5339C28.8017 28.5932 28.6695 28.6229 28.5169 28.6229C28.2932 28.6229 28.1102 28.5635 27.9678 28.435C27.8356 28.3164 27.7542 28.1582 27.7339 27.9604H29.8593L29.8695 27.6737C29.8695 27.476 29.839 27.2782 29.7881 27.1003C29.7373 26.9223 29.6559 26.7542 29.5441 26.596ZM27.7847 27.3277C27.8254 27.1794 27.8966 27.0508 27.9983 26.9619C28.1102 26.8531 28.2525 26.8037 28.4153 26.8037C28.6085 26.8037 28.761 26.8531 28.8627 26.9619C28.9542 27.0607 29.0153 27.1794 29.0254 27.3277H27.7847Z" fill="#0080FF"/>
<path d="M32.6254 26.3983C32.3814 26.2006 32.0458 26.0918 31.6288 26.0918C31.3644 26.0918 31.1102 26.1511 30.8864 26.2599C30.6729 26.3587 30.4695 26.5367 30.3373 26.7542L30.3475 26.7641L30.8661 27.2387C31.0797 26.9124 31.3136 26.7938 31.6288 26.7938C31.8017 26.7938 31.9339 26.8333 32.0458 26.9223C32.1475 27.0113 32.2085 27.12 32.2085 27.2585V27.4068C32.0051 27.3474 31.8119 27.3178 31.6186 27.3178C31.222 27.3178 30.8966 27.4068 30.6525 27.5847C30.4085 27.7627 30.2864 28.0296 30.2864 28.3658C30.2864 28.6624 30.3881 28.8898 30.6017 29.0678C30.8153 29.2359 31.0695 29.3248 31.3746 29.3248C31.6797 29.3248 31.9644 29.2062 32.2288 28.9986V29.2556H33.022V27.2585C32.9915 26.8926 32.8695 26.596 32.6254 26.3983ZM31.2017 28.0791C31.2932 28.0198 31.4254 27.9901 31.5881 27.9901C31.7814 27.9901 31.9847 28.0297 32.1983 28.0989V28.4054C32.0254 28.5635 31.7915 28.6426 31.5068 28.6426C31.3644 28.6426 31.2627 28.613 31.1814 28.5537C31.1102 28.4943 31.0695 28.4251 31.0695 28.3263C31.0695 28.2175 31.1102 28.1384 31.2017 28.0791Z" fill="#0080FF"/>
<path d="M36.083 26.4576C35.8593 26.2104 35.5441 26.0918 35.1475 26.0918C34.8322 26.0918 34.5678 26.1808 34.3746 26.3587V26.1709H33.5915V29.2655H34.3949V27.5551C34.3949 27.3178 34.4559 27.1299 34.5678 27.0014C34.6797 26.8729 34.8322 26.8037 35.0458 26.8037C35.2288 26.8037 35.361 26.863 35.4627 26.9816C35.5644 27.1003 35.6153 27.2683 35.6153 27.4661V29.2655H36.4186V27.4661C36.4186 27.0409 36.3068 26.6949 36.083 26.4576Z" fill="#0080FF"/>
<path d="M16.3136 26.3983C16.0695 26.2006 15.7339 26.0918 15.3169 26.0918C15.0525 26.0918 14.7983 26.1511 14.5746 26.2599C14.361 26.3587 14.1576 26.5367 14.0254 26.7542L14.0356 26.7641L14.5542 27.2387C14.7678 26.9124 15.0017 26.7938 15.3169 26.7938C15.4898 26.7938 15.622 26.8333 15.7339 26.9223C15.8356 27.0113 15.8966 27.12 15.8966 27.2585V27.4068C15.6932 27.3474 15.5 27.3178 15.3068 27.3178C14.9102 27.3178 14.5847 27.4068 14.3407 27.5847C14.0966 27.7627 13.9746 28.0296 13.9746 28.3658C13.9746 28.6624 14.0763 28.8898 14.2898 29.0678C14.5034 29.2359 14.7576 29.3248 15.0627 29.3248C15.3678 29.3248 15.6525 29.2062 15.9169 28.9986V29.2556H16.7102V27.2585C16.6797 26.8926 16.5576 26.596 16.3136 26.3983ZM14.8898 28.0791C14.9814 28.0198 15.1136 27.9901 15.2763 27.9901C15.4695 27.9901 15.6729 28.0297 15.8864 28.0989V28.4054C15.7136 28.5635 15.4797 28.6426 15.1949 28.6426C15.0525 28.6426 14.9508 28.613 14.8695 28.5537C14.7983 28.4943 14.7576 28.4251 14.7576 28.3263C14.7576 28.2175 14.7983 28.1384 14.8898 28.0791Z" fill="#0080FF"/>
<path d="M21.0424 29.3346C19.7508 29.3346 18.7034 28.3163 18.7034 27.0606C18.7034 25.805 19.7508 24.7866 21.0424 24.7866C22.3339 24.7866 23.3814 25.805 23.3814 27.0606C23.3814 28.3163 22.3339 29.3346 21.0424 29.3346ZM21.0424 25.5875C20.2085 25.5875 19.5271 26.2499 19.5271 27.0606C19.5271 27.8714 20.2085 28.5338 21.0424 28.5338C21.8763 28.5338 22.5576 27.8714 22.5576 27.0606C22.5576 26.2499 21.8763 25.5875 21.0424 25.5875Z" fill="#0080FF"/>
</g>
<defs>
<clipPath id="clip0_81_725">
<rect width="36" height="35" fill="white" transform="translate(0.5)"/>
</clipPath>
</defs>
</svg>
