<svg width="27" height="15" viewBox="0 0 27 15" fill="none" xmlns="http://www.w3.org/2000/svg">
<g clip-path="url(#clip0_8_451)">
<path d="M26.5 13.8851C25.5542 14.1082 24.9692 13.8948 24.4445 13.1635L20.7118 8.37048L20.1722 7.70681L15.8132 13.1794C15.3152 13.8378 14.7928 14.1241 13.8632 13.8912L19.4451 6.9369L14.2483 0.655138C15.142 0.493881 15.7596 0.575867 16.3079 1.31881L20.1794 6.17152L24.0795 1.34523C24.5791 0.68681 25.1163 0.43669 26.0133 0.679209L23.9983 3.15869L21.2683 6.45784C20.9433 6.83483 20.9879 7.09291 21.2871 7.45687L26.5 13.8851ZM0.50663 6.82071L0.963126 4.73632C2.20625 0.61134 7.30064 -1.10276 10.814 1.44604C12.8671 2.94513 13.3774 5.06571 13.2758 7.44112H1.70257C1.52882 11.7169 4.84461 14.2973 9.07183 12.9809C10.5546 12.5186 11.428 11.4409 11.8652 10.0927C12.0871 9.41711 12.4541 9.31141 13.1384 9.50452C12.7891 11.1907 12.0009 12.5993 10.3352 13.4809C7.84664 14.8005 4.29412 14.3737 2.42563 12.5398C1.31237 11.4756 0.852561 10.1275 0.64625 8.68557C0.613685 8.44721 0.54875 8.22026 0.5 7.99186C0.50429 7.60166 0.50663 7.21164 0.50663 6.82144V6.82071ZM1.72363 6.53421H12.1821C12.1138 3.44247 10.0396 1.24641 7.2047 1.22777C4.09288 1.20515 1.85837 3.3489 1.72343 6.53421H1.72363Z" fill="white"/>
</g>
<defs>
<clipPath id="clip0_8_451">
<rect width="26" height="14" fill="white" transform="translate(0.5 0.248291)"/>
</clipPath>
</defs>
</svg>
