<svg width="47" height="20" viewBox="0 0 47 20" fill="none" xmlns="http://www.w3.org/2000/svg">
<g clip-path="url(#clip0_81_716)">
<path d="M28.0687 6.80742C27.06 6.80742 26.3089 7.32297 26.3089 8.56376C26.3089 9.49861 26.804 10.1476 28.0144 10.1476C29.0403 10.1476 29.737 9.51832 29.737 8.52515C29.737 7.39963 29.1135 6.80742 28.0687 6.80742ZM26.0514 15.5681C25.8128 15.873 25.5749 16.1969 25.5749 16.5793C25.5749 17.3421 26.5094 17.5716 27.793 17.5716C28.8564 17.5716 30.3049 17.4941 30.3049 16.465C30.3049 15.8533 29.608 15.8154 28.7275 15.758L26.0514 15.5681ZM31.478 6.86514C31.8075 7.3042 32.1563 7.91501 32.1563 8.79286C32.1563 10.9111 30.5613 12.1515 28.2518 12.1515C27.6645 12.1515 27.1328 12.0754 26.8032 11.9801L26.198 12.9914L27.9944 13.1056C31.1664 13.316 33.0358 13.4116 33.0358 15.9489C33.0358 18.1441 31.1846 19.3839 27.9944 19.3839C24.6762 19.3839 23.4113 18.5059 23.4113 16.9984C23.4113 16.1393 23.778 15.6823 24.4197 15.0516C23.8145 14.7853 23.6131 14.3085 23.6131 13.793C23.6131 13.3728 23.8145 12.9913 24.145 12.6284C24.4749 12.2662 24.8414 11.9031 25.2815 11.4834C24.3833 11.0254 23.7048 10.033 23.7048 8.62062C23.7048 6.42625 25.0982 4.91919 27.9027 4.91919C28.6911 4.91919 29.1681 4.99473 29.5897 5.10994H33.165V6.73166L31.478 6.86514Z" fill="white"/>
<path d="M36.392 3.39726C35.3467 3.39726 34.742 2.76693 34.742 1.67875C34.742 0.591931 35.3468 -0.00012207 36.392 -0.00012207C37.4554 -0.00012207 38.0604 0.591931 38.0604 1.67875C38.0604 2.76692 37.4554 3.39726 36.392 3.39726ZM34.0266 14.8657V13.3589L34.9619 13.2257C35.2187 13.1869 35.2551 13.1302 35.2551 12.8432V7.23266C35.2551 7.02317 35.2004 6.889 35.0165 6.8322L34.0266 6.46928L34.2282 4.92405H38.0235V12.8434C38.0235 13.1493 38.0412 13.1871 38.3169 13.2258L39.252 13.359V14.8659H34.0265" fill="white"/>
<path d="M46.5017 14.1262C45.713 14.5265 44.5583 14.8891 43.5128 14.8891C41.3312 14.8891 40.5065 13.974 40.5065 11.8166V6.81702C40.5065 6.70275 40.5065 6.62609 40.3592 6.62609H39.0761V4.92771C40.6899 4.73636 41.3311 3.8965 41.5329 1.81641H43.2747V4.52722C43.2747 4.66032 43.2747 4.71798 43.4215 4.71798H46.0063V6.62605H43.2748V11.1869C43.2748 12.313 43.5318 12.7516 44.5212 12.7516C45.0352 12.7516 45.5662 12.6184 46.0063 12.4465L46.5017 14.1262Z" fill="white"/>
<path d="M19.3375 9.11802L10.9543 0.392661C10.472 -0.109891 9.68901 -0.109891 9.20606 0.392661L7.46539 2.20478L9.67337 4.50318C10.1867 4.32277 10.775 4.44373 11.184 4.86953C11.5951 5.29799 11.7105 5.91565 11.5328 6.45176L13.6609 8.66701C14.1758 8.48232 14.7698 8.60164 15.1809 9.03034C15.7557 9.62847 15.7557 10.5977 15.1809 11.1959C14.6061 11.7944 13.675 11.7944 13.0998 11.1959C12.6676 10.7457 12.5607 10.0847 12.7796 9.53044L10.7949 7.46448L10.7948 12.901C10.9349 12.9732 11.0671 13.0696 11.1839 13.1906C11.7585 13.7887 11.7585 14.7577 11.1839 15.3568C10.6091 15.9548 9.67765 15.9548 9.1035 15.3568C8.52882 14.7578 8.52882 13.7887 9.1035 13.1906C9.24552 13.0431 9.40985 12.9314 9.5852 12.8565V7.36942C9.40977 7.29486 9.24563 7.184 9.1034 7.03524C8.6681 6.58247 8.56326 5.91744 8.7865 5.36102L6.60986 3.0949L0.862223 9.07771C0.379287 9.58065 0.379287 10.3957 0.862223 10.8982L9.24489 19.6236C9.7275 20.1262 10.5102 20.1262 10.9935 19.6236L19.3374 10.9395C19.8202 10.4367 19.8202 9.62141 19.3374 9.11876" fill="#F05133"/>
</g>
<defs>
<clipPath id="clip0_81_716">
<rect width="46" height="20" fill="white" transform="translate(0.5)"/>
</clipPath>
</defs>
</svg>
