<svg width="30" height="30" viewBox="0 0 30 30" fill="none" xmlns="http://www.w3.org/2000/svg">
<g clip-path="url(#clip0_81_721)">
<path d="M10.1998 23.2852C10.1998 23.4023 10.0653 23.4961 9.89577 23.4961C9.70282 23.5137 9.56835 23.4199 9.56835 23.2852C9.56835 23.168 9.70282 23.0742 9.87238 23.0742C10.0478 23.0566 10.1998 23.1504 10.1998 23.2852ZM8.38145 23.0215C8.34052 23.1387 8.45746 23.2734 8.63286 23.3086C8.78488 23.3672 8.96028 23.3086 8.99536 23.1914C9.03044 23.0742 8.91935 22.9395 8.74395 22.8867C8.59194 22.8457 8.42238 22.9043 8.38145 23.0215ZM10.9657 22.9219C10.7962 22.9629 10.6792 23.0742 10.6968 23.209C10.7143 23.3262 10.8663 23.4023 11.0417 23.3613C11.2113 23.3203 11.3282 23.209 11.3107 23.0918C11.2931 22.9805 11.1353 22.9043 10.9657 22.9219ZM14.8129 0.46875C6.70343 0.46875 0.5 6.63867 0.5 14.7656C0.5 21.2637 4.58105 26.8242 10.4103 28.7813C11.1587 28.916 11.4218 28.4531 11.4218 28.0723C11.4218 27.709 11.4042 25.7051 11.4042 24.4746C11.4042 24.4746 7.31149 25.3535 6.45202 22.7285C6.45202 22.7285 5.78548 21.0234 4.82661 20.584C4.82661 20.584 3.4877 19.6641 4.92016 19.6816C4.92016 19.6816 6.37601 19.7988 7.17702 21.1934C8.45746 23.4551 10.6032 22.8047 11.4393 22.418C11.5738 21.4805 11.9538 20.8301 12.3748 20.4434C9.10645 20.0801 5.80887 19.6055 5.80887 13.9688C5.80887 12.3574 6.25323 11.5488 7.18871 10.5176C7.03669 10.1367 6.53972 8.56641 7.34073 6.53906C8.5627 6.1582 11.375 8.12109 11.375 8.12109C12.5444 7.79297 13.8014 7.62305 15.0468 7.62305C16.2921 7.62305 17.5492 7.79297 18.7185 8.12109C18.7185 8.12109 21.5308 6.15234 22.7528 6.53906C23.5538 8.57227 23.0569 10.1367 22.9048 10.5176C23.8403 11.5547 24.4133 12.3633 24.4133 13.9688C24.4133 19.623 20.9696 20.0742 17.7012 20.4434C18.2391 20.9062 18.6952 21.7852 18.6952 23.1621C18.6952 25.1367 18.6776 27.5801 18.6776 28.0605C18.6776 28.4414 18.9466 28.9043 19.6891 28.7695C25.5359 26.8242 29.5 21.2637 29.5 14.7656C29.5 6.63867 22.9224 0.46875 14.8129 0.46875ZM6.18306 20.6777C6.10706 20.7363 6.1246 20.8711 6.22399 20.9824C6.31754 21.0762 6.45202 21.1172 6.52802 21.041C6.60403 20.9824 6.58649 20.8477 6.4871 20.7363C6.39355 20.6426 6.25907 20.6016 6.18306 20.6777ZM5.55161 20.2031C5.51069 20.2793 5.56915 20.373 5.68609 20.4316C5.77964 20.4902 5.89657 20.4727 5.9375 20.3906C5.97843 20.3145 5.91996 20.2207 5.80302 20.1621C5.68609 20.127 5.59254 20.1445 5.55161 20.2031ZM7.44597 22.2891C7.35242 22.3652 7.3875 22.541 7.52198 22.6523C7.65645 22.7871 7.82601 22.8047 7.90202 22.7109C7.97802 22.6348 7.94294 22.459 7.82601 22.3477C7.69738 22.2129 7.52198 22.1953 7.44597 22.2891ZM6.77944 21.4277C6.68589 21.4863 6.68589 21.6387 6.77944 21.7734C6.87298 21.9082 7.03085 21.9668 7.10685 21.9082C7.2004 21.832 7.2004 21.6797 7.10685 21.5449C7.025 21.4102 6.87298 21.3516 6.77944 21.4277Z" fill="#7947E3"/>
</g>
<defs>
<clipPath id="clip0_81_721">
<rect width="29" height="30" fill="white" transform="translate(0.5)"/>
</clipPath>
</defs>
</svg>
