<svg width="31" height="30" viewBox="0 0 31 30" fill="none" xmlns="http://www.w3.org/2000/svg">
<path d="M3.7319 22.077L4.81007 22.6995L16.8213 1.89598L15.7432 1.27348L3.7319 22.077Z" fill="#E535AB"/>
<path d="M27.5075 20.415H3.485V21.66H27.5075V20.415Z" fill="#E535AB"/>
<path d="M3.96034 21.1143L15.9761 28.0518L16.5986 26.9736L4.58284 20.0361L3.96034 21.1143Z" fill="#E535AB"/>
<path d="M14.3984 3.03345L26.4142 9.97095L27.0367 8.89278L15.0209 1.95528L14.3984 3.03345Z" fill="#E535AB"/>
<path d="M3.96367 8.88789L4.58617 9.96606L16.6019 3.02856L15.9794 1.95039L3.96367 8.88789Z" fill="#E535AB"/>
<path d="M14.1814 1.89622L26.1926 22.6997L27.2708 22.0772L15.2595 1.27372L14.1814 1.89622Z" fill="#E535AB"/>
<path d="M5.6825 8.0625H4.4375V21.9375H5.6825V8.0625Z" fill="#E535AB"/>
<path d="M26.5625 8.0625H25.3175V21.9375H26.5625V8.0625Z" fill="#E535AB"/>
<path d="M15.2204 26.5831L15.7641 27.5249L26.2146 21.4912L25.6708 20.5494L15.2204 26.5831Z" fill="#E535AB"/>
<path d="M28.2125 22.3425C27.4925 23.595 25.8875 24.0225 24.635 23.3025C23.3825 22.5825 22.955 20.9775 23.675 19.725C24.395 18.4725 26 18.045 27.2525 18.765C28.5125 19.4925 28.94 21.09 28.2125 22.3425Z" fill="#E535AB"/>
<path d="M7.3175 10.2749C6.5975 11.5274 4.9925 11.9549 3.74 11.2349C2.4875 10.5149 2.06 8.90991 2.78 7.65741C3.5 6.40491 5.105 5.97741 6.3575 6.69741C7.61 7.42491 8.0375 9.02241 7.3175 10.2749Z" fill="#E535AB"/>
<path d="M2.78751 22.3425C2.06751 21.09 2.49501 19.4925 3.74751 18.765C5.00001 18.045 6.59751 18.4725 7.32501 19.725C8.04501 20.9775 7.61751 22.575 6.36501 23.3025C5.10501 24.0225 3.50751 23.595 2.78751 22.3425Z" fill="#E535AB"/>
<path d="M23.6825 10.2749C22.9625 9.02241 23.39 7.42491 24.6425 6.69741C25.895 5.97741 27.4925 6.40491 28.22 7.65741C28.94 8.90991 28.5125 10.5074 27.26 11.2349C26.0075 11.9549 24.4025 11.5274 23.6825 10.2749Z" fill="#E535AB"/>
<path d="M15.5 29.685C14.0525 29.685 12.8825 28.515 12.8825 27.0675C12.8825 25.62 14.0525 24.45 15.5 24.45C16.9475 24.45 18.1175 25.62 18.1175 27.0675C18.1175 28.5075 16.9475 29.685 15.5 29.685Z" fill="#E535AB"/>
<path d="M15.5 5.54994C14.0525 5.54994 12.8825 4.37994 12.8825 2.93244C12.8825 1.48494 14.0525 0.314941 15.5 0.314941C16.9475 0.314941 18.1175 1.48494 18.1175 2.93244C18.1175 4.37994 16.9475 5.54994 15.5 5.54994Z" fill="#E535AB"/>
</svg>
