<svg xmlns="http://www.w3.org/2000/svg" xmlns:xlink="http://www.w3.org/1999/xlink" preserveAspectRatio="xMidYMid" viewBox="0 -30.63 255.32 285.96">
  <linearGradient id="a">
    <stop offset=".18" stop-color="#0052cc"/>
    <stop offset="1" stop-color="#2684ff"/>
  </linearGradient>
  <linearGradient xlink:href="#a" id="b" x1="98.03%" x2="58.89%" y1=".16%" y2="40.77%"/>
  <linearGradient xlink:href="#a" id="c" x1="100.67%" x2="55.4%" y1=".46%" y2="44.73%"/>
  <path fill="#2684ff" d="M244.66 0H121.7a55.5 55.5 0 0 0 55.5 55.5h22.65v21.87a55.5 55.5 0 0 0 55.46 55.47V10.67c0-5.9-4.77-10.67-10.66-10.67z"/>
  <path fill="url(#b)" d="M183.82 61.26H60.87a55.5 55.5 0 0 0 55.47 55.47h22.65v21.94a55.5 55.5 0 0 0 55.5 55.43V71.93c0-5.9-4.78-10.67-10.67-10.67z"/>
  <path fill="url(#c)" d="M122.95 122.49H0a55.5 55.5 0 0 0 55.5 55.5h22.72v21.87a55.5 55.5 0 0 0 55.4 55.46V133.16c0-5.9-4.78-10.67-10.67-10.67z"/>
</svg>
