<svg width="31" height="29" viewBox="0 0 31 29" fill="none" xmlns="http://www.w3.org/2000/svg">
<g clip-path="url(#clip0_63_644)">
<path d="M15.5 29C24.0604 29 31 22.5081 31 14.5C31 6.49187 24.0604 0 15.5 0C6.93959 0 0 6.49187 0 14.5C0 22.5081 6.93959 29 15.5 29Z" fill="#13AA52"/>
<path d="M19.6432 12.7283C18.6642 8.68612 16.3504 7.35705 16.1012 6.84927C15.8288 6.49102 15.5527 5.85381 15.5527 5.85381C15.5481 5.84305 15.5409 5.82407 15.5324 5.80566C15.5042 6.16392 15.4897 6.30212 15.1276 6.66349C14.567 7.07356 11.6904 9.33154 11.4564 13.924C11.2381 18.2071 14.7637 20.7594 15.2406 21.0848L15.2947 21.1207V21.1176C15.2978 21.1391 15.4461 22.1371 15.5503 23.1946H15.9238C16.0115 22.4471 16.1429 21.7047 16.3174 20.9706L16.3477 20.9522C16.5609 20.8092 16.7643 20.6536 16.9565 20.4863L16.9783 20.4679C17.9918 19.592 19.814 17.566 19.7961 14.3357C19.7923 13.7969 19.7412 13.2593 19.6432 12.7283ZM15.5106 18.6665C15.5106 18.6665 15.5106 12.6592 15.7225 12.6603C15.8878 12.6603 16.1018 20.409 16.1018 20.409C15.8076 20.3759 15.5106 19.1338 15.5106 18.6665Z" fill="white"/>
</g>
<defs>
<clipPath id="clip0_63_644">
<rect width="31" height="29" fill="white"/>
</clipPath>
</defs>
</svg>
