<svg width="37" height="21" viewBox="0 0 37 21" fill="none" xmlns="http://www.w3.org/2000/svg">
<path fill-rule="evenodd" clip-rule="evenodd" d="M1.0019 18.6193H2.1058V13.7496L3.82978 17.9953C4.02506 18.5057 4.3056 18.6947 4.8488 18.6947C5.39199 18.6947 5.65578 18.5055 5.85753 17.9953L7.57295 13.7496V18.6193H8.68541V13.7496C8.68541 13.2769 8.51545 13.0495 8.15878 12.9266C7.3181 12.643 6.75759 12.8889 6.50293 13.5221L4.81321 17.7206L3.18267 13.5221C2.93639 12.8889 2.36731 12.643 1.51826 12.9266C1.16996 13.0495 1.00019 13.2767 1.00019 13.7496L1 18.6193H1.0019ZM9.60431 14.6573H10.7168V17.3334C10.7084 17.4845 10.7592 17.8251 11.3639 17.8342C11.6779 17.8438 13.7586 17.8342 13.7753 17.8342V14.6382H14.8878V19.0164C14.8878 20.0944 13.6887 20.3305 13.1299 20.3402H9.63172V19.5179H13.1389C13.8522 19.4327 13.7673 19.0357 13.7673 18.9033V18.5815H11.4149C10.3194 18.572 9.6144 18.033 9.60622 17.4184V14.6569L9.60431 14.6573ZM33.4664 11.5556C32.7873 11.5365 32.2605 11.6124 31.8189 11.8205C31.6918 11.8777 31.4878 11.8777 31.471 12.057C31.539 12.1322 31.5471 12.2554 31.6067 12.3597C31.7085 12.5489 31.8871 12.8039 32.0483 12.9361C32.2268 13.0877 32.4051 13.2388 32.5917 13.3712C32.9228 13.598 33.2964 13.7305 33.619 13.9575C33.8059 14.0899 33.9926 14.2601 34.1796 14.4021C34.2747 14.4778 34.3324 14.6009 34.4513 14.648V14.6193C34.392 14.5346 34.3748 14.4116 34.3156 14.3167C34.2306 14.2224 34.1457 14.137 34.0606 14.0427C33.8145 13.6739 33.5086 13.3522 33.1775 13.0877C32.9057 12.8795 32.3115 12.596 32.2011 12.2463L32.1844 12.2272C32.3709 12.2081 32.5917 12.1325 32.7702 12.0757C33.0591 11.9909 33.3221 12.0095 33.619 11.9245C33.7551 11.8864 33.8908 11.8393 34.0269 11.7921V11.7073C33.8741 11.5371 33.7637 11.3101 33.6025 11.1495C33.1695 10.7335 32.6937 10.3267 32.2011 9.98637C31.9379 9.79732 31.5981 9.67418 31.318 9.51375C31.2158 9.45695 31.0462 9.42855 30.9868 9.33402C30.8336 9.12632 30.7489 8.85186 30.6385 8.6058C30.3924 8.0857 30.1545 7.50902 29.9423 6.96052C29.7895 6.59175 29.6958 6.22297 29.5093 5.8826C28.6346 4.27505 27.6833 3.30119 26.2227 2.34598C25.9087 2.14739 25.5351 2.06198 25.1379 1.95813L24.501 1.91998C24.3649 1.85386 24.2292 1.67413 24.1103 1.58894C23.6263 1.24856 22.3779 0.511015 22.0211 1.48509C21.7917 2.09971 22.3608 2.70479 22.554 3.01698C22.6986 3.23443 22.8852 3.48028 22.9874 3.72612C23.0445 3.88677 23.0635 4.05717 23.1231 4.22736C23.2588 4.64339 23.3863 5.10691 23.5646 5.49475C23.6598 5.69334 23.7597 5.90168 23.8787 6.08119C23.9466 6.18504 24.0656 6.23251 24.0909 6.4027C23.9719 6.59196 23.9637 6.87532 23.8958 7.11206C23.5899 8.18065 23.7089 9.50442 24.1419 10.289C24.278 10.5253 24.5987 11.0456 25.0338 10.8468C25.4159 10.6767 25.3307 10.1377 25.4411 9.66486C25.4668 9.55147 25.4496 9.47581 25.5004 9.39993V9.41901L25.8487 10.2038C26.112 10.6671 26.5707 11.1495 26.9526 11.4712C27.1563 11.6414 27.3177 11.9347 27.5723 12.0386V12.01H27.5556C27.5046 11.9252 27.4281 11.887 27.3601 11.8209C27.2073 11.6507 27.0375 11.4426 26.9186 11.2535C26.5621 10.7241 26.248 10.1377 25.9677 9.53261C25.8316 9.2395 25.7127 8.91799 25.6026 8.62487C25.5513 8.51128 25.5513 8.34088 25.4666 8.2845C25.339 8.4922 25.1525 8.67235 25.0587 8.92752C24.8973 9.33402 24.8805 9.83526 24.8212 10.3554C24.7869 10.3649 24.8021 10.3554 24.7869 10.3744C24.5155 10.299 24.4219 9.98658 24.32 9.72208C24.0654 9.05066 24.0227 7.97274 24.2435 7.19726C24.3029 6.99867 24.5579 6.37451 24.4561 6.18546C24.4047 6.00574 24.2353 5.90189 24.1417 5.75989C24.0313 5.58016 23.9127 5.35339 23.8362 5.1548C23.6326 4.62496 23.5307 4.03895 23.3098 3.50931C23.2076 3.26346 23.0294 3.00808 22.885 2.7813C22.7236 2.52592 22.5456 2.34619 22.4181 2.04376C22.3756 1.93991 22.3163 1.76951 22.3842 1.65591C22.401 1.58025 22.4352 1.55206 22.5028 1.53298C22.6132 1.42913 22.9276 1.56138 23.038 1.61776C23.352 1.75976 23.6152 1.89201 23.8785 2.09038C23.9974 2.18491 24.1249 2.36463 24.2778 2.4121H24.4563C24.7281 2.47823 25.0336 2.43118 25.288 2.51596C25.7382 2.67703 26.1456 2.91313 26.5111 3.16873C27.6234 3.95353 28.5407 5.06939 29.1604 6.40291C29.2623 6.62036 29.3047 6.81895 29.3983 7.04593C29.5769 7.50944 29.7976 7.98206 29.9756 8.43625C30.1541 8.88068 30.3239 9.33487 30.5786 9.70364C30.7061 9.90223 31.2154 10.0061 31.4445 10.1101C31.6145 10.1949 31.8775 10.2712 32.0308 10.3751C32.3193 10.5737 32.608 10.8006 32.8796 11.0181C33.0153 11.1313 33.4401 11.3678 33.4654 11.5564L33.4664 11.5556ZM24.8065 3.33828C24.6892 3.33712 24.5722 3.35301 24.4586 3.38554V3.40461H24.4753C24.5433 3.55594 24.6622 3.66 24.7471 3.79246L24.9426 4.24643L24.9593 4.22736C25.0783 4.13283 25.1379 3.98151 25.1379 3.75474C25.0869 3.68861 25.0785 3.62227 25.036 3.55615C24.985 3.46162 24.8746 3.41415 24.8065 3.3387V3.33828Z" fill="#00678C"/>
<path fill-rule="evenodd" clip-rule="evenodd" d="M15.7355 18.6192H18.9284C19.3021 18.6192 19.6589 18.5345 19.9475 18.3829C20.4315 18.1371 20.6608 17.8065 20.6608 17.3714V16.4636C20.6608 16.1139 20.3976 15.7827 19.8713 15.5559C19.5995 15.4425 19.2598 15.3762 18.9286 15.3762H17.5868C17.1367 15.3762 16.9245 15.2246 16.8649 14.894C16.8565 14.8563 16.8565 14.8183 16.8565 14.7806V14.2226C16.8565 14.194 16.8565 14.1565 16.8649 14.1187C16.9243 13.8633 17.0433 13.797 17.4359 13.75H20.7052V12.927H17.5971C17.147 12.927 16.9093 12.9556 16.6969 13.0313C16.0429 13.258 15.7542 13.6175 15.7542 14.2508V14.9699C15.7542 15.5273 16.3147 16.0005 17.2658 16.1139C17.3676 16.1235 17.478 16.1235 17.5884 16.1235H18.7349C18.7773 16.1235 18.8196 16.1235 18.8535 16.133C19.2018 16.1707 19.3546 16.2368 19.4564 16.3784C19.5244 16.4541 19.5415 16.5204 19.5415 16.6056V17.3241C19.5415 17.4089 19.4905 17.5229 19.3887 17.6172C19.2868 17.7115 19.1251 17.7779 18.9128 17.7874C18.8704 17.7874 18.8453 17.7969 18.8025 17.7969H15.7355V18.6192ZM27.5729 17.1916C27.5729 18.033 28.1439 18.5057 29.2802 18.6006C29.3905 18.6101 29.4924 18.6192 29.6028 18.6192H32.49V17.7969H29.5774C28.9317 17.7969 28.6856 17.6172 28.6856 17.1823V12.927H27.5708V17.1918L27.5729 17.1916ZM21.3654 17.2291V14.298C21.3654 13.5509 21.8408 13.0968 22.7668 12.9552C22.8686 12.9457 22.9704 12.9361 23.0637 12.9361H25.1695C25.2799 12.9361 25.3735 12.9457 25.4839 12.9552C26.4094 13.0968 26.8763 13.5507 26.8763 14.298V17.2291C26.8763 17.8342 26.6812 18.156 26.2224 18.3736L27.3091 19.4702H26.0271L25.144 18.5815L24.2521 18.6383H23.0633C22.8455 18.6371 22.6286 18.6054 22.4179 18.544C21.7137 18.3261 21.3654 17.9103 21.3654 17.2291ZM22.5626 17.1634C22.5626 17.2012 22.5816 17.2387 22.5883 17.2864C22.6476 17.6265 22.9362 17.8158 23.3777 17.8158H24.38L23.463 16.889H24.745L25.5516 17.7024C25.7049 17.6077 25.7981 17.4752 25.832 17.305C25.8406 17.2673 25.8406 17.2202 25.8406 17.1821V14.3735C25.8406 14.3358 25.8406 14.2982 25.832 14.2601C25.7726 13.9388 25.4841 13.7593 25.0509 13.7593H23.3779C22.8854 13.7593 22.5627 13.9956 22.5627 14.3735L22.5626 17.1634Z" fill="#CE8B2C"/>
</svg>
