<svg width="31" height="31" viewBox="0 0 31 31" fill="none" xmlns="http://www.w3.org/2000/svg">
<path d="M21.9417 10.9545L21.9312 10.9499C21.9253 10.9476 21.9193 10.9452 21.914 10.9398C21.9054 10.9303 21.899 10.9188 21.8954 10.9063C21.8917 10.8938 21.8909 10.8806 21.893 10.8677L22.4727 7.20509L25.1915 10.0152L22.364 11.2583C22.3561 11.2616 22.3477 11.2632 22.3392 11.263H22.328C22.3242 11.2607 22.3205 11.2576 22.313 11.2498C22.2078 11.1287 22.0819 11.0287 21.9417 10.9545ZM25.8852 10.7313L28.7922 13.7352C29.396 14.3599 29.6982 14.6714 29.8085 15.0326C29.825 15.0861 29.8385 15.1395 29.849 15.1946L22.9017 12.1542C22.898 12.1526 22.8943 12.1511 22.8905 12.1496C22.8627 12.138 22.8305 12.1248 22.8305 12.0953C22.8305 12.0659 22.8635 12.0519 22.8912 12.0403L22.9002 12.0364L25.8852 10.7313ZM29.7305 16.1587C29.5805 16.4501 29.288 16.7523 28.793 17.2646L25.5155 20.6506L21.2765 19.7384L21.254 19.7337C21.2165 19.7275 21.1768 19.7206 21.1768 19.6857C21.1607 19.505 21.1087 19.3297 21.0242 19.1706C20.9397 19.0115 20.8244 18.8721 20.6855 18.7611C20.6682 18.7433 20.6727 18.7154 20.678 18.6898C20.678 18.6859 20.678 18.6821 20.6795 18.679L21.4767 13.6213L21.4797 13.6043C21.4842 13.5655 21.491 13.5206 21.5247 13.5206C21.6956 13.4986 21.8605 13.4417 22.0099 13.3532C22.1592 13.2648 22.2901 13.1464 22.3948 13.0052C22.4015 12.9974 22.406 12.9889 22.415 12.9843C22.439 12.9726 22.4675 12.9843 22.4922 12.9951L29.7305 16.1587ZM24.7617 21.4294L19.3722 26.9986L20.2948 21.1396L20.2962 21.1318C20.297 21.1241 20.2985 21.1163 20.3007 21.1094C20.3082 21.0908 20.3277 21.083 20.3465 21.0753L20.3555 21.0714C20.5575 20.9823 20.7361 20.845 20.8768 20.6707C20.8948 20.649 20.9165 20.6281 20.9443 20.6242C20.9515 20.623 20.9588 20.623 20.966 20.6242L24.761 21.4302L24.7617 21.4294ZM18.2315 28.1774L17.624 28.8051L10.9077 18.7751C10.9053 18.7714 10.9028 18.7678 10.9002 18.7642C10.8897 18.7495 10.8785 18.7348 10.8807 18.7177C10.8815 18.7053 10.889 18.6945 10.8972 18.6852L10.9047 18.6751C10.925 18.6441 10.9422 18.6131 10.961 18.5798L10.976 18.5526L10.9782 18.5503C10.9887 18.5317 10.9985 18.5139 11.0165 18.5038C11.0322 18.4961 11.054 18.4992 11.0712 18.503L18.512 20.0887C18.5328 20.092 18.5524 20.1008 18.569 20.1143C18.5787 20.1243 18.581 20.1352 18.5833 20.1476C18.6352 20.3505 18.7317 20.5383 18.8655 20.6962C18.9992 20.8542 19.1665 20.9781 19.3542 21.0582C19.3752 21.0691 19.3662 21.0931 19.3565 21.1187C19.3516 21.1299 19.3479 21.1416 19.3452 21.1535C19.2515 21.7425 18.4475 26.8095 18.2315 28.1774ZM16.9625 29.4879C16.5148 29.9459 16.2507 30.1885 15.9522 30.2861C15.6579 30.3823 15.3421 30.3823 15.0477 30.2861C14.6982 30.1714 14.396 29.8599 13.7922 29.2352L7.0475 22.2657L8.80925 19.4423C8.8175 19.4284 8.82575 19.416 8.83925 19.4059C8.858 19.392 8.885 19.3982 8.9075 19.4059C9.31187 19.532 9.74603 19.5092 10.136 19.3416C10.1562 19.3338 10.1765 19.3284 10.1922 19.3431C10.2001 19.3506 10.2072 19.3589 10.2132 19.3679L16.9625 29.4879ZM6.39725 21.5937L4.85 19.9949L7.9055 18.648C7.91331 18.6444 7.92173 18.6426 7.93025 18.6425C7.95575 18.6425 7.97075 18.6689 7.98425 18.6929C8.01496 18.7417 8.04748 18.7893 8.08175 18.8355L8.0915 18.8479C8.1005 18.8611 8.0945 18.8743 8.0855 18.8867L6.39725 21.5937ZM4.16525 19.2873L2.20775 17.2646C1.87475 16.9205 1.63325 16.6709 1.46525 16.4563L7.41725 17.7319C7.42473 17.7333 7.43223 17.7346 7.43975 17.7358C7.4765 17.742 7.517 17.749 7.517 17.7846C7.517 17.8234 7.47275 17.8412 7.43525 17.8559L7.418 17.8637L4.16525 19.2873ZM1.12325 15.4162C1.13003 15.2859 1.15271 15.157 1.19075 15.0326C1.30175 14.6714 1.60325 14.3599 2.20775 13.7352L4.71275 11.1467C5.86612 12.8764 7.02263 14.6039 8.18225 16.3292C8.2025 16.3571 8.225 16.3881 8.20175 16.4113C8.09225 16.5361 7.98275 16.6725 7.9055 16.8205C7.89712 16.8395 7.88422 16.8561 7.868 16.8686C7.85825 16.8748 7.84775 16.8724 7.8365 16.8701H7.835L1.12325 15.4162ZM5.38325 10.4539L8.7515 6.97336C9.068 7.11674 10.22 7.61971 11.2505 8.06921C12.0305 8.41021 12.7415 8.72021 12.965 8.82096C12.9875 8.83026 13.0077 8.83956 13.0175 8.86281C13.0235 8.87676 13.0205 8.89459 13.0175 8.90931C12.9642 9.16055 12.9721 9.42154 13.0406 9.66882C13.109 9.9161 13.2359 10.1419 13.4097 10.326C13.4322 10.3493 13.4097 10.3826 13.3902 10.4113L13.3797 10.4275L9.95975 15.9014C9.95075 15.9169 9.9425 15.93 9.9275 15.9401C9.9095 15.9517 9.884 15.9463 9.863 15.9409C9.72998 15.9049 9.59324 15.8856 9.45575 15.8835C9.33275 15.8835 9.19925 15.9068 9.06425 15.9324C9.04925 15.9347 9.035 15.9378 9.023 15.9285C9.00975 15.9173 8.99835 15.9039 8.98925 15.889L5.38325 10.4539ZM9.43175 6.27044L13.7922 1.76459C14.396 1.14071 14.6982 0.828386 15.0477 0.714461C15.3421 0.618292 15.6579 0.618292 15.9522 0.714461C16.3018 0.828386 16.604 1.14071 17.2078 1.76459L18.1528 2.74109L15.0515 7.70419C15.0438 7.71863 15.0334 7.7313 15.0208 7.74139C15.002 7.75456 14.9757 7.74914 14.9532 7.74139C14.7087 7.66471 14.4498 7.65075 14.1989 7.70071C13.948 7.75068 13.7127 7.86306 13.5132 8.02814C13.493 8.04984 13.463 8.03744 13.4375 8.02581C13.0325 7.84369 9.8825 6.46806 9.43175 6.27044ZM18.8113 3.42154L21.6747 6.38049L20.9847 10.7964V10.8081C20.9841 10.8181 20.9821 10.828 20.9788 10.8375C20.9713 10.853 20.9562 10.8561 20.9412 10.8608C20.7937 10.9069 20.6548 10.9785 20.5303 11.0723C20.5249 11.0763 20.5199 11.0807 20.5152 11.0855C20.507 11.0948 20.4987 11.1033 20.4852 11.1049C20.4743 11.1052 20.4633 11.1034 20.453 11.0995L16.0895 9.18366L16.0812 9.17979C16.0535 9.16816 16.0205 9.15421 16.0205 9.12476C15.9949 8.87349 15.9154 8.63127 15.788 8.41564C15.767 8.37999 15.7438 8.34279 15.7618 8.30636L18.8113 3.42154ZM15.8622 10.0912L19.9527 11.8814C19.9753 11.8923 20 11.9024 20.0098 11.9264C20.0137 11.9408 20.0137 11.9561 20.0098 11.9706C19.9977 12.0326 19.9872 12.1031 19.9872 12.1744V12.293C19.9872 12.3224 19.958 12.3348 19.931 12.3464L19.9227 12.3495C19.2747 12.6355 10.8252 16.3586 10.8125 16.3586C10.7997 16.3586 10.7862 16.3586 10.7735 16.3454C10.751 16.3222 10.7735 16.2896 10.7937 16.2602C10.7973 16.2551 10.8008 16.2499 10.8042 16.2447L14.1658 10.8662L14.1717 10.8569C14.1912 10.8243 14.2137 10.7879 14.2498 10.7879L14.2835 10.7933C14.36 10.8042 14.4275 10.8143 14.4957 10.8143C15.0057 10.8143 15.4782 10.5577 15.7632 10.1191C15.77 10.1074 15.7787 10.0969 15.7887 10.0881C15.809 10.0726 15.839 10.0803 15.8622 10.0912ZM11.1777 17.2096L20.3877 13.1509C20.3877 13.1509 20.4012 13.1509 20.414 13.1641C20.4642 13.216 20.507 13.2509 20.5483 13.2834L20.5685 13.2966C20.5872 13.3074 20.606 13.3198 20.6075 13.34C20.6075 13.3477 20.6075 13.3524 20.606 13.3594L19.817 18.3674L19.814 18.3876C19.8088 18.4263 19.8035 18.4705 19.7682 18.4705C19.5579 18.4852 19.3542 18.5526 19.1747 18.667C18.9953 18.7814 18.8456 18.9392 18.7385 19.1269L18.7347 19.1331C18.7242 19.1509 18.7145 19.168 18.6973 19.1773C18.6815 19.185 18.6613 19.1819 18.6448 19.1781L11.3 17.6126C11.2925 17.611 11.186 17.2103 11.1777 17.2096Z" fill="url(#paint0_radial_81_723)"/>
<defs>
<radialGradient id="paint0_radial_81_723" cx="0" cy="0" r="1" gradientUnits="userSpaceOnUse" gradientTransform="translate(0.158777 15.0811) rotate(90) scale(2968.32 3316.49)">
<stop stop-color="#20C6B7"/>
<stop offset="1" stop-color="#4D9ABF"/>
</radialGradient>
</defs>
</svg>
