<svg width="47" height="24" viewBox="0 0 47 24" fill="none" xmlns="http://www.w3.org/2000/svg">
<g clip-path="url(#clip0_8_428)">
<path d="M20.2705 23.2483C20.1385 23.2483 20.0074 23.2157 19.8916 23.1532L18.6857 22.4829C18.5055 22.3883 18.5934 22.3548 18.6528 22.3356C18.893 22.2566 18.9417 22.2388 19.1981 22.1021C19.225 22.0877 19.2603 22.0928 19.2879 22.1081L20.2143 22.6242C20.2478 22.6412 20.2953 22.6412 20.3263 22.6242L23.9386 20.6666C23.9721 20.6487 23.9938 20.6122 23.9938 20.5749V16.6613C23.9938 16.6223 23.9721 16.5875 23.9379 16.5679L20.327 14.612C20.2935 14.5933 20.2492 14.5933 20.2158 14.612L16.6056 16.5679C16.5706 16.5866 16.5484 16.6231 16.5484 16.6605V20.574C16.5484 20.6114 16.5701 20.6471 16.6044 20.6649L17.5936 21.2014C18.1307 21.4535 18.459 21.1564 18.459 20.8576V16.995C18.459 16.9398 18.5051 16.8973 18.5639 16.8973H19.0214C19.0784 16.8973 19.1254 16.9398 19.1254 16.995V20.8593C19.1254 21.5316 18.7348 21.9179 18.0557 21.9179C17.8468 21.9179 17.6823 21.9179 17.2229 21.7057L16.2753 21.1929C16.0411 21.0656 15.8964 20.8279 15.8964 20.574V16.6605C15.8964 16.4058 16.0411 16.1681 16.2753 16.0425L19.8913 14.084C20.12 13.9626 20.4238 13.9626 20.6508 14.084L24.2622 16.0433C24.4955 16.1698 24.6411 16.4066 24.6411 16.6613V20.5749C24.6411 20.8287 24.4955 21.0656 24.2622 21.1929L20.6508 23.1514C20.5351 23.2142 20.404 23.2465 20.2701 23.2465" fill="#689F63"/>
<path d="M21.3863 20.5516C19.8058 20.5516 19.4744 19.8704 19.4744 19.2991C19.4744 19.2448 19.521 19.2015 19.579 19.2015H20.0456C20.0971 19.2015 20.1405 19.2367 20.1486 19.2845C20.2192 19.7309 20.4289 19.956 21.3847 19.956C22.1461 19.956 22.4698 19.7946 22.4698 19.4155C22.4698 19.1973 22.3775 19.0352 21.1948 18.9265C20.2056 18.8348 19.5944 18.6302 19.5944 17.8874C19.5944 17.2032 20.2092 16.7957 21.2391 16.7957C22.3956 16.7957 22.9689 17.1726 23.0412 17.9825C23.0439 18.0105 23.0331 18.0377 23.0132 18.0581C22.9933 18.0776 22.9653 18.0895 22.9363 18.0895H22.4671C22.4182 18.0895 22.3757 18.0572 22.3658 18.0131C22.2528 17.5436 21.9797 17.3934 21.2373 17.3934C20.4063 17.3934 20.3096 17.665 20.3096 17.8688C20.3096 18.1158 20.4235 18.188 21.5448 18.3272C22.6551 18.4656 23.1823 18.6608 23.1823 19.3934C23.1823 20.132 22.5258 20.5556 21.3811 20.5556M25.781 16.4052H25.9022C26.0016 16.4052 26.0206 16.3398 26.0206 16.3016C26.0206 16.2015 25.9474 16.2015 25.9067 16.2015H25.7819L25.781 16.4052ZM25.6336 16.0843H25.9022C25.9944 16.0843 26.1753 16.0843 26.1753 16.2779C26.1753 16.4128 26.083 16.4409 26.0279 16.4578C26.1355 16.4646 26.1427 16.5308 26.1572 16.6242C26.1644 16.6828 26.1762 16.7838 26.1979 16.8178H26.0324C26.0279 16.7838 26.0026 16.5971 26.0026 16.5869C25.9917 16.5453 25.9763 16.5249 25.9212 16.5249H25.7846V16.8186H25.6336V16.0843ZM25.3108 16.4493C25.3108 16.7533 25.5721 16.9994 25.8931 16.9994C26.2169 16.9994 26.4782 16.7482 26.4782 16.4493C26.4782 16.1446 26.2132 15.9026 25.8922 15.9026C25.5758 15.9026 25.3099 16.1412 25.3099 16.4485M26.5903 16.451C26.5903 16.811 26.2765 17.1047 25.894 17.1047C25.5143 17.1047 25.1978 16.8144 25.1978 16.451C25.1978 16.0809 25.5215 15.7974 25.894 15.7974C26.2693 15.7974 26.5894 16.0818 26.5894 16.451" fill="#689F63"/>
<path fill-rule="evenodd" clip-rule="evenodd" d="M9.08453 7.93534C9.08453 7.77914 8.99682 7.63567 8.85323 7.55799L5.02332 5.48915C4.95867 5.45349 4.88624 5.43482 4.81282 5.43227H4.77322C4.6998 5.43482 4.62737 5.45349 4.56163 5.48915L0.731905 7.55799C0.589219 7.63609 0.500244 7.77956 0.500244 7.93577L0.508653 13.5081C0.508653 13.5854 0.551152 13.6576 0.623489 13.6958C0.694018 13.7365 0.782631 13.7365 0.853161 13.6958L3.12998 12.4716C3.27375 12.3913 3.36146 12.2494 3.36146 12.0947V9.49143C3.36146 9.33608 3.44917 9.19261 3.59249 9.11536L4.56181 8.59123C4.63379 8.55217 4.71282 8.53282 4.79329 8.53282C4.8725 8.53282 4.95334 8.552 5.02332 8.59114L5.99219 9.1151C6.1356 9.19235 6.22367 9.33582 6.22367 9.49118V12.0943C6.22367 12.2488 6.31256 12.3914 6.45561 12.4712L8.73098 13.6945C8.80241 13.7344 8.8913 13.7344 8.96246 13.6945C9.03263 13.6563 9.07712 13.5841 9.07712 13.5069L9.08453 7.93534ZM27.157 10.8366C27.157 10.8754 27.135 10.9114 27.0991 10.9305L25.7836 11.6425C25.7479 11.6617 25.7038 11.6617 25.6682 11.6425L24.3525 10.9305C24.3164 10.9113 24.2947 10.8754 24.2947 10.8366V9.41078C24.2947 9.3719 24.3164 9.33608 24.3516 9.31655L25.6664 8.60345C25.7025 8.58392 25.7468 8.58392 25.783 8.60345L27.0986 9.31655C27.1348 9.33608 27.1565 9.3719 27.1565 9.41078L27.157 10.8366ZM27.5123 0.275778C27.4405 0.238255 27.3532 0.239274 27.2823 0.27807C27.2118 0.317121 27.1682 0.388431 27.1682 0.465684V5.98373C27.1682 6.03807 27.1374 6.08815 27.0873 6.11532C27.0376 6.14248 26.9757 6.14248 26.9255 6.11532L25.9661 5.59654C25.8232 5.51894 25.6473 5.51894 25.5039 5.59654L21.6727 7.67243C21.5296 7.74968 21.4412 7.89315 21.4412 8.04766V12.2006C21.4412 12.356 21.5296 12.4986 21.6727 12.5767L25.5039 14.654C25.6469 14.7313 25.8231 14.7313 25.9666 14.654L29.7977 12.5759C29.9406 12.4978 30.0292 12.3551 30.0292 12.1998V1.84961C30.0292 1.69205 29.9379 1.54714 29.7914 1.47014L27.5123 0.275778ZM40.2702 9.37326C40.4125 9.29567 40.5001 9.15237 40.5001 8.99786V7.99137C40.5001 7.83653 40.4124 7.69365 40.2698 7.61572L36.4631 5.54093C36.3193 5.46283 36.143 5.46283 35.9992 5.54093L32.1689 7.61657C32.0252 7.69467 31.9375 7.83729 31.9375 7.99264V12.1439C31.9375 12.3001 32.027 12.4444 32.1708 12.5217L35.9766 14.5583C36.1168 14.6338 36.2886 14.6347 36.4305 14.5608L38.7327 13.3596C38.805 13.3214 38.8511 13.2492 38.8511 13.1711C38.8511 13.093 38.8068 13.02 38.7345 12.9818L34.8807 10.9053C34.8084 10.8671 34.7641 10.795 34.7641 10.7177V9.41545C34.7641 9.33769 34.8075 9.26604 34.8798 9.22733L36.0788 8.5779C36.1502 8.53885 36.2379 8.53885 36.3094 8.5779L37.5093 9.22733C37.5807 9.26553 37.625 9.33769 37.625 9.41494V10.4388C37.625 10.516 37.6693 10.5882 37.7407 10.6272C37.8122 10.6654 37.9008 10.6654 37.9722 10.6264L40.2702 9.37326Z" fill="white"/>
<path fill-rule="evenodd" clip-rule="evenodd" d="M36.1749 9.17899C36.202 9.16397 36.236 9.16397 36.2635 9.17899L36.9987 9.57714C37.0261 9.59208 37.043 9.61959 37.043 9.6493V10.4464C37.043 10.4762 37.0261 10.5037 36.9987 10.5186L36.2635 10.9168C36.236 10.9318 36.202 10.9318 36.1749 10.9168L35.4402 10.5186C35.4122 10.5037 35.395 10.4762 35.395 10.4464V9.6493C35.395 9.61959 35.4113 9.59208 35.4393 9.57714L36.1749 9.17899Z" fill="#689F63"/>
<mask id="mask0_8_428" style="mask-type:luminance" maskUnits="userSpaceOnUse" x="10" y="5" width="10" height="10">
<path d="M15.033 5.56163L11.2236 7.62598C11.0809 7.70323 10.9933 7.84585 10.9933 8.00002V12.1316C10.9933 12.2858 11.0809 12.4284 11.2236 12.5056L15.0333 14.5716C15.1757 14.6486 15.3513 14.6486 15.4936 14.5716L19.3027 12.5056C19.4446 12.4284 19.5323 12.2858 19.5323 12.1316V8.00002C19.5323 7.84585 19.4446 7.70323 19.3018 7.62598L15.4932 5.56163C15.4218 5.52318 15.3422 5.50391 15.2626 5.50391C15.183 5.50391 15.1035 5.52318 15.032 5.56163" fill="white"/>
</mask>
<g mask="url(#mask0_8_428)">
<path d="M23.382 7.27538L12.6475 2.33545L7.14355 12.877L17.8777 17.8171L23.382 7.27538Z" fill="url(#paint0_linear_8_428)"/>
</g>
<mask id="mask1_8_428" style="mask-type:luminance" maskUnits="userSpaceOnUse" x="11" y="5" width="9" height="10">
<path d="M11.0877 12.3939C11.1241 12.4383 11.1697 12.4768 11.2233 12.5056L14.4912 14.2778L15.0355 14.5715C15.1169 14.6156 15.2097 14.6343 15.3008 14.6279C15.3312 14.6257 15.3616 14.6203 15.3912 14.6124L19.409 7.70551C19.3783 7.6741 19.3423 7.64778 19.302 7.62571L16.8076 6.27336L15.4891 5.56111C15.4516 5.54073 15.411 5.5263 15.3697 5.51611L11.0877 12.3939Z" fill="white"/>
</mask>
<g mask="url(#mask1_8_428)">
<path d="M6.44653 8.73645L14.0261 18.3678L24.0503 11.4146L16.4702 1.78345L6.44653 8.73645Z" fill="url(#paint1_linear_8_428)"/>
</g>
<mask id="mask2_8_428" style="mask-type:luminance" maskUnits="userSpaceOnUse" x="11" y="5" width="9" height="10">
<path d="M15.2171 5.50625C15.1532 5.51219 15.0907 5.53087 15.0331 5.5616L11.2345 7.62L15.3306 14.6245C15.3876 14.6169 15.4436 14.5991 15.4943 14.5716L19.3037 12.5056C19.4213 12.4416 19.5018 12.3333 19.5262 12.2105L15.3505 5.5133C15.3198 5.50761 15.289 5.50464 15.2574 5.50464C15.2447 5.50464 15.232 5.50523 15.2194 5.50634" fill="white"/>
</mask>
<g mask="url(#mask2_8_428)">
<path d="M11.2342 5.50464V14.6247H19.5243V5.50464H11.2342Z" fill="url(#paint2_linear_8_428)"/>
</g>
</g>
<defs>
<linearGradient id="paint0_linear_8_428" x1="18.0115" y1="4.79765" x2="13.0463" y2="15.5862" gradientUnits="userSpaceOnUse">
<stop offset="0.3" stop-color="#3E863D"/>
<stop offset="0.5" stop-color="#55934F"/>
<stop offset="0.8" stop-color="#5AAD45"/>
</linearGradient>
<linearGradient id="paint1_linear_8_428" x1="10.2818" y1="13.6073" x2="19.8518" y2="6.07572" gradientUnits="userSpaceOnUse">
<stop offset="0.57" stop-color="#3E863D"/>
<stop offset="0.72" stop-color="#619857"/>
<stop offset="1" stop-color="#76AC64"/>
</linearGradient>
<linearGradient id="paint2_linear_8_428" x1="11.237" y1="10.0649" x2="19.5259" y2="10.0649" gradientUnits="userSpaceOnUse">
<stop offset="0.16" stop-color="#6BBF47"/>
<stop offset="0.38" stop-color="#79B461"/>
<stop offset="0.47" stop-color="#75AC64"/>
<stop offset="0.7" stop-color="#659E5A"/>
<stop offset="0.9" stop-color="#3E863D"/>
</linearGradient>
<clipPath id="clip0_8_428">
<rect width="40" height="23" fill="white" transform="translate(0.5 0.248291)"/>
</clipPath>
</defs>
</svg>
