<svg width="39" height="32" viewBox="0 0 39 32" fill="none" xmlns="http://www.w3.org/2000/svg">
<g clip-path="url(#clip0_8_480)">
<path d="M28.6779 23.2949C28.9198 21.5987 28.8471 21.3512 30.3463 21.6249L30.7278 21.6537C31.8812 21.6974 33.3893 21.4974 34.2903 21.1512C36.1977 20.4062 37.3288 19.1612 35.4481 19.4887C31.1583 20.2337 30.8466 19.0099 30.8466 19.0099C35.3784 13.3474 37.2739 6.15993 35.6366 4.40118C31.1776 -0.398823 23.4573 1.87118 23.3282 1.93118L23.2866 1.93743C22.4405 1.78743 21.5054 1.69993 20.4218 1.68743C18.4802 1.66243 17.0077 2.11618 15.8885 2.82993C15.8885 2.82993 2.11797 -1.94757 2.75774 8.83868C2.8943 11.1337 6.66164 26.2137 11.1593 21.6512C12.8055 19.9837 14.3938 18.5749 14.3938 18.5749C15.1805 19.0162 16.126 19.2412 17.1161 19.1599L17.1933 19.1049C17.1704 19.321 17.1809 19.5386 17.2245 19.7524C16.0666 20.8424 16.408 21.0337 14.0924 21.4349C11.7501 21.8412 13.1276 22.5649 14.0241 22.7549C15.1137 22.9849 17.6341 23.3099 19.3382 21.3024L19.2699 21.5312C19.7241 21.8374 19.693 23.7312 19.7598 25.0837C19.8266 26.4362 19.932 27.6999 20.26 28.4437C20.588 29.1874 20.9725 31.1062 24.0155 30.5687C26.5582 30.1099 28.5027 29.4487 28.6809 23.3062" fill="black"/>
<path d="M28.6779 23.2949C28.9198 21.5987 28.8471 21.3512 30.3463 21.6249L30.7278 21.6537C31.8812 21.6974 33.3893 21.4974 34.2903 21.1512C36.1977 20.4062 37.3288 19.1612 35.4481 19.4887C31.1583 20.2337 30.8466 19.0099 30.8466 19.0099C35.3784 13.3474 37.2739 6.15993 35.6366 4.40118C31.1776 -0.398823 23.4573 1.87118 23.3282 1.93118L23.2866 1.93743C22.4405 1.78743 21.5054 1.69993 20.4218 1.68743C18.4802 1.66243 17.0077 2.11618 15.8885 2.82993C15.8885 2.82993 2.11797 -1.94757 2.75774 8.83868C2.8943 11.1337 6.66164 26.2137 11.1593 21.6512C12.8055 19.9837 14.3938 18.5749 14.3938 18.5749C15.1805 19.0162 16.126 19.2412 17.1161 19.1599L17.1933 19.1049C17.1704 19.321 17.1809 19.5386 17.2245 19.7524C16.0666 20.8424 16.408 21.0337 14.0924 21.4349C11.7501 21.8412 13.1276 22.5649 14.0241 22.7549C15.1137 22.9849 17.6341 23.3099 19.3382 21.3024L19.2699 21.5312C19.7241 21.8374 19.693 23.7312 19.7598 25.0837C19.8266 26.4362 19.932 27.6999 20.26 28.4437C20.588 29.1874 20.9725 31.1062 24.0155 30.5687C26.5582 30.1099 28.5027 29.4487 28.6809 23.3062" stroke="black" stroke-width="5.3725"/>
<path d="M35.4348 19.4999C31.1449 20.2449 30.8332 19.0212 30.8332 19.0212C35.365 13.3587 37.2606 6.17117 35.6248 4.41242C31.1657 -0.387582 23.4455 1.88367 23.3163 1.94242L23.2748 1.94867C22.3318 1.78934 21.3731 1.70522 20.4114 1.69742C18.4698 1.67242 16.9973 2.12617 15.8781 2.83992C15.8781 2.83992 2.1061 -1.93758 2.74735 8.84867C2.88391 11.1437 6.65126 26.2237 11.1489 21.6612C12.8055 19.9837 14.3938 18.5749 14.3938 18.5749C15.1805 19.0162 16.126 19.2412 17.1161 19.1599L17.1933 19.1049C17.1706 19.321 17.1811 19.5386 17.2245 19.7524C16.0666 20.8424 16.4081 21.0337 14.0924 21.4349C11.7501 21.8412 13.1276 22.5649 14.0241 22.7549C15.1137 22.9849 17.6341 23.3099 19.3382 21.3024L19.2699 21.5312C19.7241 21.8374 20.0418 23.5224 19.9884 25.0499C19.9349 26.5774 19.8993 27.6249 20.2556 28.4449C20.6118 29.2649 20.9681 31.1074 24.011 30.5699C26.5538 30.1112 27.8704 28.9199 28.0559 26.9374C28.1866 25.5274 28.4805 25.7349 28.5013 24.4749L28.7388 23.8774C29.0104 21.9649 28.7833 21.3487 30.3493 21.6362L30.7308 21.6649C31.8841 21.7087 33.3938 21.5087 34.2784 21.1624C36.1859 20.4174 37.3155 19.1724 35.4348 19.4999Z" fill="#336791"/>
<path d="M19.5208 20.5837C19.402 24.1412 19.5505 27.7237 19.9631 28.5837C20.3758 29.4437 21.262 31.1462 24.3064 30.5987C26.8491 30.14 27.7754 29.2512 28.1762 27.29L29.1158 21.0187M15.8722 2.74995C15.8722 2.74995 2.09125 -1.99505 2.7325 8.7912C2.86907 11.0862 6.63641 26.1662 11.1341 21.6037C12.7758 19.9375 14.2602 18.6337 14.2602 18.6337M23.3148 1.8837C22.8398 2.0087 30.9802 -0.622546 35.6084 4.3562C37.2413 6.11495 35.3487 13.3025 30.8169 18.965" stroke="white" stroke-width="1.79" stroke-linecap="round" stroke-linejoin="round"/>
<path d="M30.8184 18.9625C30.8184 18.9625 31.1152 20.1875 35.4199 19.44C37.3006 19.1125 36.1681 20.3575 34.2621 21.1025C32.6976 21.715 29.1885 21.8712 29.1306 21.0275C28.9822 18.8462 30.9772 19.5087 30.8332 18.9625C30.7026 18.47 29.809 17.9875 29.2212 16.7825C28.7061 15.7325 22.1556 7.66997 31.0381 8.86622C31.3646 8.80997 28.7224 1.74122 20.4099 1.63872C12.0974 1.53622 12.3602 10.245 12.3602 10.245" stroke="white" stroke-width="1.79" stroke-linecap="round" stroke-linejoin="bevel"/>
<path d="M17.1948 19.71C16.037 20.8 16.3784 20.9912 14.0627 21.3925C11.7204 21.7987 13.0979 22.5225 13.9945 22.7125C15.084 22.9425 17.6045 23.2675 19.3085 21.2587C19.8281 20.6462 19.3056 19.6712 18.5931 19.4237C18.2487 19.3037 17.7885 19.1537 17.1977 19.7112L17.1948 19.71Z" stroke="white" stroke-width="1.79" stroke-linejoin="round"/>
<path d="M17.1191 19.6913C17.0003 19.05 17.3684 18.2888 17.7618 17.3963C18.3526 16.0588 19.7152 14.7213 18.6257 10.475C17.8138 7.31251 12.3616 9.81626 12.3616 10.245C12.3616 10.6738 12.6081 12.42 12.2726 14.4513C11.8317 17.1038 14.2765 19.3463 17.0909 19.1175" stroke="white" stroke-width="1.79" stroke-linecap="round" stroke-linejoin="round"/>
<path d="M15.8217 10.1812C15.7965 10.3275 16.1409 10.7187 16.5877 10.7712C17.0345 10.8237 17.4159 10.5187 17.4412 10.3712C17.4664 10.2237 17.122 10.0637 16.6752 10.0112C16.2284 9.95871 15.844 10.0362 15.8217 10.1812Z" fill="white" stroke="white" stroke-width="0.5975"/>
<path d="M29.4245 9.8825C29.4483 10.0288 29.1054 10.42 28.6586 10.4725C28.2118 10.525 27.8273 10.22 27.8051 10.0725C27.7828 9.925 28.1242 9.765 28.571 9.7125C29.0178 9.66 29.4023 9.7375 29.4245 9.8825Z" fill="white" stroke="white" stroke-width="0.2975"/>
<path d="M31.0217 8.86865C31.0959 10.0187 30.7278 10.7999 30.6803 12.0237C30.612 13.8012 31.6867 15.8362 30.0673 17.8737" stroke="white" stroke-width="1.79" stroke-linecap="round" stroke-linejoin="round"/>
</g>
<defs>
<clipPath id="clip0_8_480">
<rect width="38" height="32" fill="white" transform="translate(0.5)"/>
</clipPath>
</defs>
</svg>
