<svg width="35" height="34" viewBox="0 0 35 34" fill="none" xmlns="http://www.w3.org/2000/svg">
<g clip-path="url(#clip0_38_196)">
<path d="M34.2385 30.8617V32.431C33.8917 32.431 33.5591 32.5687 33.3139 32.814C33.0686 33.0592 32.9308 33.3918 32.9308 33.7387H31.3616C31.3616 33.3918 31.2238 33.0592 30.9786 32.814C30.7334 32.5687 30.4007 32.431 30.0539 32.431C29.7071 32.431 29.3745 32.5687 29.1292 32.814C28.884 33.0592 28.7462 33.3918 28.7462 33.7387H27.177C27.177 33.3918 27.0392 33.0592 26.794 32.814C26.5487 32.5687 26.2161 32.431 25.8693 32.431C25.5225 32.431 25.1899 32.5687 24.9446 32.814C24.6994 33.0592 24.5616 33.3918 24.5616 33.7387H22.9924C22.9924 33.3918 22.8546 33.0592 22.6094 32.814C22.3641 32.5687 22.0315 32.431 21.6847 32.431C21.3379 32.431 21.0052 32.5687 20.76 32.814C20.5148 33.0592 20.377 33.3918 20.377 33.7387H18.8078C18.8078 33.3918 18.67 33.0592 18.4247 32.814C18.1795 32.5687 17.8469 32.431 17.5001 32.431C17.1532 32.431 16.8206 32.5687 16.5754 32.814C16.3301 33.0592 16.1924 33.3918 16.1924 33.7387H14.6231C14.6231 33.3918 14.4854 33.0592 14.2401 32.814C13.9949 32.5687 13.6623 32.431 13.3155 32.431C12.9686 32.431 12.636 32.5687 12.3908 32.814C12.1455 33.0592 12.0078 33.3918 12.0078 33.7387H10.4385C10.4385 33.3918 10.3008 33.0592 10.0555 32.814C9.81027 32.5687 9.47765 32.431 9.13083 32.431C8.78401 32.431 8.45139 32.5687 8.20615 32.814C7.96091 33.0592 7.82314 33.3918 7.82314 33.7387H6.25391C6.25391 33.3918 6.11613 33.0592 5.87089 32.814C5.62565 32.5687 5.29304 32.431 4.94621 32.431C4.59939 32.431 4.26678 32.5687 4.02154 32.814C3.7763 33.0592 3.63852 33.3918 3.63852 33.7387H2.06929C2.06929 33.3918 1.93152 33.0592 1.68628 32.814C1.44104 32.5687 1.10842 32.431 0.761597 32.431L0.761597 30.8617C1.10842 30.8617 1.44104 30.724 1.68628 30.4787C1.93152 30.2335 2.06929 29.9009 2.06929 29.554C2.06929 29.2072 1.93152 28.8746 1.68628 28.6294C1.44104 28.3841 1.10842 28.2464 0.761597 28.2464L0.761597 26.6771C1.10842 26.6771 1.44104 26.5393 1.68628 26.2941C1.93152 26.0489 2.06929 25.7162 2.06929 25.3694C2.06929 25.0226 1.93152 24.69 1.68628 24.4447C1.44104 24.1995 1.10842 24.0617 0.761597 24.0617L0.761597 22.4925C1.10842 22.4925 1.44104 22.3547 1.68628 22.1095C1.93152 21.8642 2.06929 21.5316 2.06929 21.1848C2.06929 20.838 1.93152 20.5054 1.68628 20.2601C1.44104 20.0149 1.10842 19.8771 0.761597 19.8771L0.761597 18.3079C1.10842 18.3079 1.44104 18.1701 1.68628 17.9249C1.93152 17.6796 2.06929 17.347 2.06929 17.0002C2.06929 16.6534 1.93152 16.3208 1.68628 16.0755C1.44104 15.8303 1.10842 15.6925 0.761597 15.6925L0.761597 14.1233C1.10842 14.1233 1.44104 13.9855 1.68628 13.7403C1.93152 13.495 2.06929 13.1624 2.06929 12.8156C2.06929 12.4688 1.93152 12.1361 1.68628 11.8909C1.44104 11.6457 1.10842 11.5079 0.761597 11.5079L0.761597 9.93865C1.10842 9.93865 1.44104 9.80087 1.68628 9.55563C1.93152 9.31039 2.06929 8.97778 2.06929 8.63095C2.06929 8.28413 1.93152 7.95152 1.68628 7.70628C1.44104 7.46104 1.10842 7.32326 0.761597 7.32326L0.761597 5.75403C1.10842 5.75403 1.44104 5.61626 1.68628 5.37102C1.93152 5.12578 2.06929 4.79316 2.06929 4.44634C2.06929 4.09951 1.93152 3.7669 1.68628 3.52166C1.44104 3.27642 1.10842 3.13864 0.761597 3.13864L0.761597 1.56941C1.10842 1.56941 1.44104 1.43164 1.68628 1.1864C1.93152 0.941157 2.06929 0.608541 2.06929 0.261719H3.63852C3.63852 0.608541 3.7763 0.941157 4.02154 1.1864C4.26678 1.43164 4.59939 1.56941 4.94621 1.56941C5.29304 1.56941 5.62565 1.43164 5.87089 1.1864C6.11613 0.941157 6.25391 0.608541 6.25391 0.261719H7.82314C7.82314 0.608541 7.96091 0.941157 8.20615 1.1864C8.45139 1.43164 8.78401 1.56941 9.13083 1.56941C9.47765 1.56941 9.81027 1.43164 10.0555 1.1864C10.3008 0.941157 10.4385 0.608541 10.4385 0.261719H12.0078C12.0078 0.608541 12.1455 0.941157 12.3908 1.1864C12.636 1.43164 12.9686 1.56941 13.3155 1.56941C13.6623 1.56941 13.9949 1.43164 14.2401 1.1864C14.4854 0.941157 14.6231 0.608541 14.6231 0.261719H16.1924C16.1924 0.608541 16.3301 0.941157 16.5754 1.1864C16.8206 1.43164 17.1532 1.56941 17.5001 1.56941C17.8469 1.56941 18.1795 1.43164 18.4247 1.1864C18.67 0.941157 18.8078 0.608541 18.8078 0.261719H20.377C20.377 0.608541 20.5148 0.941157 20.76 1.1864C21.0052 1.43164 21.3379 1.56941 21.6847 1.56941C22.0315 1.56941 22.3641 1.43164 22.6094 1.1864C22.8546 0.941157 22.9924 0.608541 22.9924 0.261719H24.5616C24.5616 0.608541 24.6994 0.941157 24.9446 1.1864C25.1899 1.43164 25.5225 1.56941 25.8693 1.56941C26.2161 1.56941 26.5487 1.43164 26.794 1.1864C27.0392 0.941157 27.177 0.608541 27.177 0.261719H28.7462C28.7462 0.608541 28.884 0.941157 29.1292 1.1864C29.3745 1.43164 29.7071 1.56941 30.0539 1.56941C30.4007 1.56941 30.7334 1.43164 30.9786 1.1864C31.2238 0.941157 31.3616 0.608541 31.3616 0.261719H32.9308C32.9308 0.608541 33.0686 0.941157 33.3139 1.1864C33.5591 1.43164 33.8917 1.56941 34.2385 1.56941V3.13864C33.8917 3.13864 33.5591 3.27642 33.3139 3.52166C33.0686 3.7669 32.9308 4.09951 32.9308 4.44634C32.9308 4.79316 33.0686 5.12578 33.3139 5.37102C33.5591 5.61626 33.8917 5.75403 34.2385 5.75403V7.32326C33.8917 7.32326 33.5591 7.46104 33.3139 7.70628C33.0686 7.95152 32.9308 8.28413 32.9308 8.63095C32.9308 8.97778 33.0686 9.31039 33.3139 9.55563C33.5591 9.80087 33.8917 9.93865 34.2385 9.93865V11.5079C33.8917 11.5079 33.5591 11.6457 33.3139 11.8909C33.0686 12.1361 32.9308 12.4688 32.9308 12.8156C32.9308 13.1624 33.0686 13.495 33.3139 13.7403C33.5591 13.9855 33.8917 14.1233 34.2385 14.1233V15.6925C33.8917 15.6925 33.5591 15.8303 33.3139 16.0755C33.0686 16.3208 32.9308 16.6534 32.9308 17.0002C32.9308 17.347 33.0686 17.6796 33.3139 17.9249C33.5591 18.1701 33.8917 18.3079 34.2385 18.3079V19.8771C33.8917 19.8771 33.5591 20.0149 33.3139 20.2601C33.0686 20.5054 32.9308 20.838 32.9308 21.1848C32.9308 21.5316 33.0686 21.8642 33.3139 22.1095C33.5591 22.3547 33.8917 22.4925 34.2385 22.4925V24.0617C33.8917 24.0617 33.5591 24.1995 33.3139 24.4447C33.0686 24.69 32.9308 25.0226 32.9308 25.3694C32.9308 25.7162 33.0686 26.0489 33.3139 26.2941C33.5591 26.5393 33.8917 26.6771 34.2385 26.6771V28.2464C33.8917 28.2464 33.5591 28.3841 33.3139 28.6294C33.0686 28.8746 32.9308 29.2072 32.9308 29.554C32.9308 29.9009 33.0686 30.2335 33.3139 30.4787C33.5591 30.724 33.8917 30.8617 34.2385 30.8617Z" fill="#F0F0F0"/>
<path fill-rule="evenodd" clip-rule="evenodd" d="M34.3693 30.7309V32.5616H34.2385C33.9264 32.5616 33.627 32.6856 33.4063 32.9064C33.1856 33.1271 33.0616 33.4264 33.0616 33.7386V33.8693H31.2308V33.7386C31.2308 33.4264 31.1068 33.1271 30.8861 32.9064C30.6654 32.6856 30.366 32.5616 30.0539 32.5616C29.7418 32.5616 29.4424 32.6856 29.2217 32.9064C29.001 33.1271 28.877 33.4264 28.877 33.7386V33.8693H27.0462V33.7386C27.0462 33.4264 26.9222 33.1271 26.7015 32.9064C26.4808 32.6856 26.1814 32.5616 25.8693 32.5616C25.5571 32.5616 25.2578 32.6856 25.0371 32.9064C24.8163 33.1271 24.6924 33.4264 24.6924 33.7386V33.8693H22.8616V33.7386C22.8616 33.4264 22.7376 33.1271 22.5169 32.9064C22.2962 32.6856 21.9968 32.5616 21.6847 32.5616C21.3725 32.5616 21.0732 32.6856 20.8524 32.9064C20.6317 33.1271 20.5077 33.4264 20.5077 33.7386V33.8693H18.677V33.7386C18.677 33.4264 18.553 33.1271 18.3323 32.9064C18.1115 32.6856 17.8122 32.5616 17.5 32.5616C17.1879 32.5616 16.8885 32.6856 16.6678 32.9064C16.4471 33.1271 16.3231 33.4264 16.3231 33.7386V33.8693H14.4923V33.7386C14.4923 33.4264 14.3683 33.1271 14.1476 32.9064C13.9269 32.6856 13.6276 32.5616 13.3154 32.5616C13.0033 32.5616 12.7039 32.6856 12.4832 32.9064C12.2625 33.1271 12.1385 33.4264 12.1385 33.7386V33.8693H10.3077V33.7386C10.3077 33.4264 10.1837 33.1271 9.96301 32.9064C9.7423 32.6856 9.44294 32.5616 9.1308 32.5616C8.81866 32.5616 8.51931 32.6856 8.29859 32.9064C8.07788 33.1271 7.95388 33.4264 7.95388 33.7386V33.8693H6.12311V33.7386C6.12311 33.4264 5.99911 33.1271 5.7784 32.9064C5.55768 32.6856 5.25833 32.5616 4.94619 32.5616C4.63405 32.5616 4.33469 32.6856 4.11397 32.9064C3.89326 33.1271 3.76926 33.4264 3.76926 33.7386V33.8693H1.93849V33.7386C1.93849 33.4264 1.81449 33.1271 1.59378 32.9064C1.37306 32.6856 1.07371 32.5616 0.761568 32.5616H0.630798V30.7309H0.761568C1.07371 30.7309 1.37306 30.6069 1.59378 30.3862C1.81449 30.1655 1.93849 29.8661 1.93849 29.554C1.93849 29.2418 1.81449 28.9425 1.59378 28.7217C1.37306 28.501 1.07371 28.377 0.761568 28.377H0.630798V26.5463H0.761568C1.07371 26.5463 1.37306 26.4223 1.59378 26.2015C1.81449 25.9808 1.93849 25.6815 1.93849 25.3693C1.93849 25.0572 1.81449 24.7578 1.59378 24.5371C1.37306 24.3164 1.07371 24.1924 0.761568 24.1924H0.630798V22.3616H0.761568C0.916124 22.3616 1.06917 22.3312 1.21196 22.2721C1.35475 22.2129 1.48449 22.1262 1.59378 22.0169C1.70307 21.9076 1.78976 21.7779 1.8489 21.6351C1.90805 21.4923 1.93849 21.3393 1.93849 21.1847C1.93849 21.0302 1.90805 20.8771 1.8489 20.7343C1.78976 20.5915 1.70307 20.4618 1.59378 20.3525C1.48449 20.2432 1.35475 20.1565 1.21196 20.0974C1.06917 20.0382 0.916124 20.0078 0.761568 20.0078H0.630798V18.177H0.761568C1.07371 18.177 1.37306 18.053 1.59378 17.8323C1.81449 17.6116 1.93849 17.3122 1.93849 17.0001C1.93849 16.688 1.81449 16.3886 1.59378 16.1679C1.37306 15.9472 1.07371 15.8232 0.761568 15.8232H0.630798V13.9924H0.761568C1.07371 13.9924 1.37306 13.8684 1.59378 13.6477C1.81449 13.427 1.93849 13.1276 1.93849 12.8155C1.93849 12.5033 1.81449 12.204 1.59378 11.9833C1.37306 11.7626 1.07371 11.6386 0.761568 11.6386H0.630798V9.80779H0.761568C1.07371 9.80779 1.37306 9.68379 1.59378 9.46308C1.81449 9.24236 1.93849 8.943 1.93849 8.63086C1.93849 8.31873 1.81449 8.01937 1.59378 7.79865C1.37306 7.57794 1.07371 7.45394 0.761568 7.45394H0.630798V5.62317H0.761568C1.07371 5.62317 1.37306 5.49917 1.59378 5.27846C1.81449 5.05774 1.93849 4.75839 1.93849 4.44625C1.93849 4.13411 1.81449 3.83475 1.59378 3.61404C1.37306 3.39332 1.07371 3.26932 0.761568 3.26932H0.630798V1.43855H0.761568C1.07371 1.43855 1.37306 1.31456 1.59378 1.09384C1.81449 0.873123 1.93849 0.573768 1.93849 0.261629V0.130859H3.76926V0.261629C3.76926 0.573768 3.89326 0.873123 4.11397 1.09384C4.33469 1.31456 4.63405 1.43855 4.94619 1.43855C5.25833 1.43855 5.55768 1.31456 5.7784 1.09384C5.99911 0.873123 6.12311 0.573768 6.12311 0.261629V0.130859H7.95388V0.261629C7.95388 0.573768 8.07788 0.873123 8.29859 1.09384C8.51931 1.31456 8.81866 1.43855 9.1308 1.43855C9.44294 1.43855 9.7423 1.31456 9.96301 1.09384C10.1837 0.873123 10.3077 0.573768 10.3077 0.261629V0.130859H12.1385V0.261629C12.1385 0.573768 12.2625 0.873123 12.4832 1.09384C12.7039 1.31456 13.0033 1.43855 13.3154 1.43855C13.6276 1.43855 13.9269 1.31456 14.1476 1.09384C14.3683 0.873123 14.4923 0.573768 14.4923 0.261629V0.130859H16.3231V0.261629C16.3231 0.573768 16.4471 0.873123 16.6678 1.09384C16.8885 1.31456 17.1879 1.43855 17.5 1.43855C17.8122 1.43855 18.1115 1.31456 18.3323 1.09384C18.553 0.873123 18.677 0.573768 18.677 0.261629V0.130859H20.5077V0.261629C20.5077 0.416185 20.5382 0.569227 20.5973 0.712018C20.6565 0.854809 20.7432 0.984552 20.8524 1.09384C20.9617 1.20313 21.0915 1.28982 21.2343 1.34896C21.3771 1.40811 21.5301 1.43855 21.6847 1.43855C21.8392 1.43855 21.9923 1.40811 22.135 1.34896C22.2778 1.28982 22.4076 1.20313 22.5169 1.09384C22.6262 0.984552 22.7128 0.854809 22.772 0.712018C22.8311 0.569227 22.8616 0.416185 22.8616 0.261629V0.130859H24.6924V0.261629C24.6924 0.573768 24.8163 0.873123 25.0371 1.09384C25.2578 1.31456 25.5571 1.43855 25.8693 1.43855C26.1814 1.43855 26.4808 1.31456 26.7015 1.09384C26.9222 0.873123 27.0462 0.573768 27.0462 0.261629V0.130859H28.877V0.261629C28.877 0.573768 29.001 0.873123 29.2217 1.09384C29.4424 1.31456 29.7418 1.43855 30.0539 1.43855C30.366 1.43855 30.6654 1.31456 30.8861 1.09384C31.1068 0.873123 31.2308 0.573768 31.2308 0.261629V0.130859H33.0616V0.261629C33.0616 0.573768 33.1856 0.873123 33.4063 1.09384C33.627 1.31456 33.9264 1.43855 34.2385 1.43855H34.3693V3.26932H34.2385C33.9264 3.26932 33.627 3.39332 33.4063 3.61404C33.1856 3.83475 33.0616 4.13411 33.0616 4.44625C33.0616 4.75839 33.1856 5.05774 33.4063 5.27846C33.627 5.49917 33.9264 5.62317 34.2385 5.62317H34.3693V7.45394H34.2385C33.9264 7.45394 33.627 7.57794 33.4063 7.79865C33.1856 8.01937 33.0616 8.31873 33.0616 8.63086C33.0616 8.943 33.1856 9.24236 33.4063 9.46308C33.627 9.68379 33.9264 9.80779 34.2385 9.80779H34.3693V11.6386H34.2385C33.9264 11.6386 33.627 11.7626 33.4063 11.9833C33.1856 12.204 33.0616 12.5033 33.0616 12.8155C33.0616 13.1276 33.1856 13.427 33.4063 13.6477C33.627 13.8684 33.9264 13.9924 34.2385 13.9924H34.3693V15.8232H34.2385C33.9264 15.8232 33.627 15.9472 33.4063 16.1679C33.1856 16.3886 33.0616 16.688 33.0616 17.0001C33.0616 17.3122 33.1856 17.6116 33.4063 17.8323C33.627 18.053 33.9264 18.177 34.2385 18.177H34.3693V20.0078H34.2385C33.9264 20.0078 33.627 20.1318 33.4063 20.3525C33.1856 20.5732 33.0616 20.8726 33.0616 21.1847C33.0616 21.4969 33.1856 21.7962 33.4063 22.0169C33.627 22.2376 33.9264 22.3616 34.2385 22.3616H34.3693V24.1924H34.2385C33.9264 24.1924 33.627 24.3164 33.4063 24.5371C33.1856 24.7578 33.0616 25.0572 33.0616 25.3693C33.0616 25.6815 33.1856 25.9808 33.4063 26.2015C33.627 26.4223 33.9264 26.5463 34.2385 26.5463H34.3693V28.377H34.2385C33.9264 28.377 33.627 28.501 33.4063 28.7217C33.1856 28.9425 33.0616 29.2418 33.0616 29.554C33.0616 29.8661 33.1856 30.1655 33.4063 30.3862C33.627 30.6069 33.9264 30.7309 34.2385 30.7309H34.3693Z" stroke="#CCCCCC" stroke-width="0.492308"/>
<path fill-rule="evenodd" clip-rule="evenodd" d="M34.1077 30.9866C33.7499 30.9545 33.4171 30.7897 33.1747 30.5245C32.9322 30.2594 32.7978 29.9131 32.7978 29.5539C32.7978 29.1946 32.9322 28.8484 33.1747 28.5833C33.4171 28.3181 33.7499 28.1533 34.1077 28.1212V26.802C33.7499 26.7699 33.4171 26.6051 33.1747 26.3399C32.9322 26.0748 32.7978 25.7285 32.7978 25.3693C32.7978 25.01 32.9322 24.6638 33.1747 24.3986C33.4171 24.1335 33.7499 23.9687 34.1077 23.9366V22.6174C33.7499 22.5853 33.4171 22.4204 33.1747 22.1553C32.9322 21.8902 32.7978 21.5439 32.7978 21.1847C32.7978 20.8254 32.9322 20.4792 33.1747 20.214C33.4171 19.9489 33.7499 19.784 34.1077 19.7519V18.4327C33.7499 18.4006 33.4171 18.2358 33.1747 17.9707C32.9322 17.7055 32.7978 17.3593 32.7978 17C32.7978 16.6408 32.9322 16.2945 33.1747 16.0294C33.4171 15.7643 33.7499 15.5994 34.1077 15.5673V14.2481C33.7499 14.216 33.4171 14.0512 33.1747 13.7861C32.9322 13.5209 32.7978 13.1747 32.7978 12.8154C32.7978 12.4562 32.9322 12.1099 33.1747 11.8448C33.4171 11.5796 33.7499 11.4148 34.1077 11.3827V10.0635C33.7499 10.0314 33.4171 9.86658 33.1747 9.60144C32.9322 9.33631 32.7978 8.99005 32.7978 8.6308C32.7978 8.27155 32.9322 7.9253 33.1747 7.66016C33.4171 7.39502 33.7499 7.23019 34.1077 7.19809V5.87889C33.7499 5.84679 33.4171 5.68196 33.1747 5.41682C32.9322 5.15169 32.7978 4.80544 32.7978 4.44618C32.7978 4.08693 32.9322 3.74068 33.1747 3.47554C33.4171 3.21041 33.7499 3.04557 34.1077 3.01347V1.69427C33.7728 1.66364 33.4591 1.51663 33.2213 1.27879C32.9834 1.04094 32.8364 0.727296 32.8058 0.392334H31.4866C31.4545 0.75015 31.2897 1.083 31.0245 1.32542C30.7594 1.56784 30.4131 1.70227 30.0539 1.70227C29.6946 1.70227 29.3484 1.56784 29.0833 1.32542C28.8181 1.083 28.6533 0.75015 28.6212 0.392334H27.302C27.2699 0.75015 27.1051 1.083 26.8399 1.32542C26.5748 1.56784 26.2285 1.70227 25.8693 1.70227C25.51 1.70227 25.1638 1.56784 24.8986 1.32542C24.6335 1.083 24.4687 0.75015 24.4366 0.392334H23.1174C23.0853 0.75015 22.9204 1.083 22.6553 1.32542C22.3902 1.56784 22.0439 1.70227 21.6847 1.70227C21.3254 1.70227 20.9792 1.56784 20.714 1.32542C20.4489 1.083 20.284 0.75015 20.2519 0.392334H18.9327C18.9006 0.75015 18.7358 1.083 18.4707 1.32542C18.2055 1.56784 17.8593 1.70227 17.5 1.70227C17.1408 1.70227 16.7945 1.56784 16.5294 1.32542C16.2643 1.083 16.0994 0.75015 16.0673 0.392334H14.7481C14.716 0.75015 14.5512 1.083 14.2861 1.32542C14.0209 1.56784 13.6747 1.70227 13.3154 1.70227C12.9562 1.70227 12.6099 1.56784 12.3448 1.32542C12.0796 1.083 11.9148 0.75015 11.8827 0.392334H10.5635C10.5314 0.75015 10.3666 1.083 10.1014 1.32542C9.83631 1.56784 9.49005 1.70227 9.1308 1.70227C8.77155 1.70227 8.4253 1.56784 8.16016 1.32542C7.89502 1.083 7.73019 0.75015 7.69809 0.392334H6.37889C6.34679 0.75015 6.18196 1.083 5.91682 1.32542C5.65169 1.56784 5.30544 1.70227 4.94618 1.70227C4.58693 1.70227 4.24068 1.56784 3.97554 1.32542C3.71041 1.083 3.54557 0.75015 3.51347 0.392334H2.19427C2.16364 0.727296 2.01663 1.04094 1.77879 1.27879C1.54094 1.51663 1.2273 1.66364 0.892334 1.69427V3.01347C1.25015 3.04557 1.583 3.21041 1.82542 3.47554C2.06784 3.74068 2.20227 4.08693 2.20227 4.44618C2.20227 4.80544 2.06784 5.15169 1.82542 5.41682C1.583 5.68196 1.25015 5.84679 0.892334 5.87889V7.19809C1.25015 7.23019 1.583 7.39502 1.82542 7.66016C2.06784 7.9253 2.20227 8.27155 2.20227 8.6308C2.20227 8.99005 2.06784 9.33631 1.82542 9.60144C1.583 9.86658 1.25015 10.0314 0.892334 10.0635V11.3827C1.25015 11.4148 1.583 11.5796 1.82542 11.8448C2.06784 12.1099 2.20227 12.4562 2.20227 12.8154C2.20227 13.1747 2.06784 13.5209 1.82542 13.7861C1.583 14.0512 1.25015 14.216 0.892334 14.2481V15.5673C1.25015 15.5994 1.583 15.7643 1.82542 16.0294C2.06784 16.2945 2.20227 16.6408 2.20227 17C2.20227 17.3593 2.06784 17.7055 1.82542 17.9707C1.583 18.2358 1.25015 18.4006 0.892334 18.4327V19.7519C1.25015 19.784 1.583 19.9489 1.82542 20.214C2.06784 20.4792 2.20227 20.8254 2.20227 21.1847C2.20227 21.5439 2.06784 21.8902 1.82542 22.1553C1.583 22.4204 1.25015 22.5853 0.892334 22.6174V23.9366C1.25015 23.9687 1.583 24.1335 1.82542 24.3986C2.06784 24.6638 2.20227 25.01 2.20227 25.3693C2.20227 25.7285 2.06784 26.0748 1.82542 26.3399C1.583 26.6051 1.25015 26.7699 0.892334 26.802V28.1212C1.25015 28.1533 1.583 28.3181 1.82542 28.5833C2.06784 28.8484 2.20227 29.1946 2.20227 29.5539C2.20227 29.9131 2.06784 30.2594 1.82542 30.5245C1.583 30.7897 1.25015 30.9545 0.892334 30.9866V32.3058C1.2273 32.3364 1.54094 32.4834 1.77879 32.7213C2.01663 32.9591 2.16364 33.2728 2.19427 33.6077H3.51347C3.54557 33.2499 3.71041 32.9171 3.97554 32.6747C4.24068 32.4322 4.58693 32.2978 4.94618 32.2978C5.30544 32.2978 5.65169 32.4322 5.91682 32.6747C6.18196 32.9171 6.34679 33.2499 6.37889 33.6077H7.69809C7.73019 33.2499 7.89502 32.9171 8.16016 32.6747C8.4253 32.4322 8.77155 32.2978 9.1308 32.2978C9.49005 32.2978 9.83631 32.4322 10.1014 32.6747C10.3666 32.9171 10.5314 33.2499 10.5635 33.6077H11.8827C11.9148 33.2499 12.0796 32.9171 12.3448 32.6747C12.6099 32.4322 12.9562 32.2978 13.3154 32.2978C13.6747 32.2978 14.0209 32.4322 14.2861 32.6747C14.5512 32.9171 14.716 33.2499 14.7481 33.6077H16.0673C16.0994 33.2499 16.2643 32.9171 16.5294 32.6747C16.7945 32.4322 17.1408 32.2978 17.5 32.2978C17.8593 32.2978 18.2055 32.4322 18.4707 32.6747C18.7358 32.9171 18.9006 33.2499 18.9327 33.6077H20.2519C20.284 33.2499 20.4489 32.9171 20.714 32.6747C20.9792 32.4322 21.3254 32.2978 21.6847 32.2978C22.0439 32.2978 22.3902 32.4322 22.6553 32.6747C22.9204 32.9171 23.0853 33.2499 23.1174 33.6077H24.4366C24.4687 33.2499 24.6335 32.9171 24.8986 32.6747C25.1638 32.4322 25.51 32.2978 25.8693 32.2978C26.2285 32.2978 26.5748 32.4322 26.8399 32.6747C27.1051 32.9171 27.2699 33.2499 27.302 33.6077H28.6212C28.6533 33.2499 28.8181 32.9171 29.0833 32.6747C29.3484 32.4322 29.6946 32.2978 30.0539 32.2978C30.4131 32.2978 30.7594 32.4322 31.0245 32.6747C31.2897 32.9171 31.4545 33.2499 31.4866 33.6077H32.8058C32.8364 33.2728 32.9834 32.9591 33.2213 32.7213C33.4591 32.4834 33.7728 32.3364 34.1077 32.3058V30.9866Z" stroke="white" stroke-width="0.492308"/>
<path d="M29.5308 4.44629H5.46924C5.18036 4.44629 4.94617 4.68048 4.94617 4.96937V29.0309C4.94617 29.3198 5.18036 29.554 5.46924 29.554H29.5308C29.8197 29.554 30.0539 29.3198 30.0539 29.0309V4.96937C30.0539 4.68048 29.8197 4.44629 29.5308 4.44629Z" fill="#FEDD00"/>
<path d="M29.4001 4.5769H5.60004C5.31115 4.5769 5.07697 4.81109 5.07697 5.09998V28.9C5.07697 29.1889 5.31115 29.4231 5.60004 29.4231H29.4001C29.6889 29.4231 29.9231 29.1889 29.9231 28.9V5.09998C29.9231 4.81109 29.6889 4.5769 29.4001 4.5769Z" stroke="#D9B500" stroke-width="0.492308"/>
<path d="M29.6616 4.31543H5.33851C5.04962 4.31543 4.81543 4.54962 4.81543 4.83851V29.1616C4.81543 29.4505 5.04962 29.6847 5.33851 29.6847H29.6616C29.9505 29.6847 30.1847 29.4505 30.1847 29.1616V4.83851C30.1847 4.54962 29.9505 4.31543 29.6616 4.31543Z" stroke="white" stroke-width="0.492308"/>
<path fill-rule="evenodd" clip-rule="evenodd" d="M13.917 22.776V11.3248H12.0078V9.41553H18.7779C23.0065 9.41553 23.8837 12.2046 23.8837 14.1389C23.8837 15.6909 23.2539 16.883 22.6016 17.5353C21.5445 18.5924 20.105 18.8398 17.9232 18.8398H16.2138V22.776H18.2156V24.6852H12.0078V22.776H13.917ZM16.2112 16.9954H18.1204C20.932 16.9954 21.5393 15.6909 21.5393 14.1164C21.5393 12.317 20.5271 11.3274 18.8402 11.3274H16.2138L16.2112 16.9954Z" fill="black"/>
</g>
<defs>
<clipPath id="clip0_38_196">
<rect width="34" height="34" fill="white" transform="translate(0.5)"/>
</clipPath>
</defs>
</svg>
