<svg width="27" height="26" viewBox="0 0 27 26" fill="none" xmlns="http://www.w3.org/2000/svg">
<g clip-path="url(#clip0_8_376)">
<path d="M13.5 15.2528C14.8291 15.2528 15.9065 14.1315 15.9065 12.7484C15.9065 11.3652 14.8291 10.2439 13.5 10.2439C12.1709 10.2439 11.0935 11.3652 11.0935 12.7484C11.0935 14.1315 12.1709 15.2528 13.5 15.2528Z" fill="#61DAFB"/>
<path d="M13.5 17.8794C20.6317 17.8794 26.4131 15.5821 26.4131 12.7483C26.4131 9.91446 20.6317 7.61719 13.5 7.61719C6.36834 7.61719 0.586975 9.91446 0.586975 12.7483C0.586975 15.5821 6.36834 17.8794 13.5 17.8794Z" stroke="#61DAFB"/>
<path d="M9.23011 15.3139C12.796 21.7415 17.5983 25.8034 19.9565 24.3865C22.3147 22.9696 21.3357 16.6104 17.7699 10.1828C14.204 3.75525 9.40166 -0.306688 7.04347 1.11022C4.68528 2.52714 5.66427 8.88635 9.23011 15.3139Z" stroke="#61DAFB"/>
<path d="M9.23016 10.1828C5.66432 16.6104 4.68532 22.9696 7.04351 24.3865C9.40171 25.8034 14.2041 21.7415 17.7699 15.3139C21.3358 8.88636 22.3147 2.52715 19.9566 1.11024C17.5984 -0.306676 12.796 3.75527 9.23016 10.1828Z" stroke="#61DAFB"/>
</g>
<defs>
<clipPath id="clip0_8_376">
<rect width="27" height="25" fill="white" transform="translate(0 0.248291)"/>
</clipPath>
</defs>
</svg>
