<svg width="29" height="32" viewBox="0 0 29 32" fill="none" xmlns="http://www.w3.org/2000/svg">
<g clip-path="url(#clip0_63_630)">
<path d="M27.403 23.3678C25.9087 24.258 18.168 27.8953 16.52 28.8772C14.8721 29.8592 13.9566 29.8497 12.6547 29.1385C11.353 28.4272 3.11548 24.6245 1.63159 23.8138C0.890031 23.4088 0.5 23.0668 0.5 22.7438V19.5093C0.5 19.5093 11.2242 16.8412 12.9555 16.1313C14.6867 15.4215 15.2874 15.3958 16.7607 16.0126C18.2342 16.6296 27.0439 18.4461 28.5 19.0556L28.4993 22.2443C28.4996 22.5641 28.1636 22.9148 27.403 23.3678Z" fill="#912626"/>
<path d="M27.4024 20.1526C25.9082 21.0423 18.1678 24.6798 16.5198 25.6616C14.872 26.6437 13.9565 26.6341 12.6547 25.9228C11.3528 25.2121 3.11569 21.4087 1.63191 20.5986C0.148131 19.788 0.117069 19.2301 1.5746 18.5778C3.03213 17.9253 11.2241 14.2522 12.9556 13.5423C14.6868 12.8327 15.2874 12.8068 16.7607 13.4238C18.2341 14.0406 25.9284 17.5407 27.3843 18.1501C28.8407 18.7602 28.8966 19.2626 27.4024 20.1526Z" fill="#C6302B"/>
<path d="M27.403 18.1344C25.9087 19.0246 18.168 22.6619 16.52 23.6441C14.8721 24.6257 13.9566 24.6162 12.6547 23.905C11.3528 23.1941 3.11548 19.391 1.63159 18.5804C0.890031 18.1754 0.5 17.8339 0.5 17.5107V14.2759C0.5 14.2759 11.2242 11.6079 12.9555 10.898C14.6867 10.1881 15.2874 10.1624 16.7607 10.7792C18.2343 11.3961 27.044 13.2122 28.5 13.8219L28.4993 17.011C28.4996 17.3306 28.1636 17.6814 27.403 18.1344Z" fill="#912626"/>
<path d="M27.4024 14.9189C25.9082 15.8089 18.1678 19.4461 16.5198 20.4283C14.872 21.41 13.9565 21.4004 12.6547 20.6891C11.3528 19.9784 3.11569 16.1751 1.63191 15.3649C0.148131 14.5545 0.117069 13.9965 1.5746 13.344C3.03213 12.6919 11.2242 9.01851 12.9556 8.30876C14.6868 7.59901 15.2874 7.57326 16.7607 8.19013C18.2341 8.80688 25.9284 12.3068 27.3843 12.9164C28.8407 13.5264 28.8966 14.0289 27.4024 14.9189Z" fill="#C6302B"/>
<path d="M27.403 12.7066C25.9087 13.5966 18.168 17.2341 16.52 18.2164C14.8721 19.1981 13.9566 19.1885 12.6547 18.4772C11.3528 17.7664 3.11548 13.9631 1.63159 13.1529C0.890031 12.7475 0.5 12.4059 0.5 12.0831V8.84811C0.5 8.84811 11.2242 6.18024 12.9555 5.47049C14.6867 4.76049 15.2874 4.73499 16.7607 5.35174C18.2343 5.96861 27.044 7.78474 28.5 8.39436L28.4993 11.5834C28.4996 11.9027 28.1636 12.2535 27.403 12.7066Z" fill="#912626"/>
<path d="M27.4024 9.49124C25.9082 10.3812 18.1678 14.0187 16.5198 15.0005C14.872 15.9822 13.9565 15.9726 12.6547 15.2617C11.3529 14.5505 3.11568 10.7475 1.63201 9.93712C0.148122 9.12687 0.117169 8.56875 1.57459 7.91637C3.03212 7.26412 11.2242 3.59125 12.9556 2.88125C14.6868 2.17137 15.2874 2.14587 16.7607 2.76275C18.234 3.37962 25.9284 6.87949 27.3842 7.48912C28.8407 8.09862 28.8966 8.60124 27.4024 9.49124Z" fill="#C6302B"/>
<path d="M17.9216 6.34461L15.5142 6.63023L14.9753 8.11223L14.1049 6.45848L11.3252 6.17298L13.3994 5.31811L12.777 4.00586L14.719 4.87386L16.5497 4.18886L16.0549 5.54573L17.9216 6.34461ZM14.8316 13.5344L10.3388 11.4047L16.7766 10.2754L14.8316 13.5344ZM8.60271 7.16836C10.5031 7.16836 12.0436 7.85086 12.0436 8.69261C12.0436 9.53461 10.5031 10.217 8.60271 10.217C6.70232 10.217 5.16177 9.53448 5.16177 8.69261C5.16177 7.85086 6.70232 7.16836 8.60271 7.16836Z" fill="white"/>
<path d="M20.7666 6.74964L24.5768 8.47039L20.7699 10.1895L20.7666 6.74964Z" fill="#621B1C"/>
<path d="M16.5513 8.65538L20.7666 6.74976L20.7699 10.1896L20.3566 10.3744L16.5513 8.65538Z" fill="#9A2928"/>
</g>
<defs>
<clipPath id="clip0_63_630">
<rect width="28" height="32" fill="white" transform="translate(0.5)"/>
</clipPath>
</defs>
</svg>
