<svg width="34" height="27" viewBox="0 0 34 27" fill="none" xmlns="http://www.w3.org/2000/svg">
<g clip-path="url(#clip0_8_537)">
<path fill-rule="evenodd" clip-rule="evenodd" d="M28.1046 1.91341L28.8002 2.83108C28.9828 3.07328 28.9371 3.42044 28.6954 3.60343L27.9569 4.16588C28.0912 4.5238 28.1771 4.90593 28.212 5.29615L29.0526 5.41186C29.3534 5.45223 29.5629 5.73211 29.5226 6.03351L29.3668 7.17724C29.3265 7.47864 29.0472 7.69124 28.7465 7.64818L27.828 7.5217C27.6642 7.87962 27.4547 8.20794 27.2076 8.50127L27.7233 9.17943C27.9059 9.42163 27.8575 9.76879 27.6158 9.95178L26.7001 10.6488C26.4584 10.8318 26.1119 10.7833 25.9293 10.5438L25.368 9.80377C25.0082 9.93833 24.6295 10.0244 24.2374 10.0594L24.1219 10.9017C24.0817 11.2032 23.8024 11.4131 23.5016 11.3727L22.3602 11.2166C22.0594 11.1762 21.85 10.8964 21.8903 10.595L22.0165 9.6746C21.662 9.51044 21.3317 9.30053 21.0389 9.05564L20.3622 9.56964C20.1205 9.75264 19.774 9.70689 19.5914 9.46469L18.8959 8.54702C18.7133 8.30482 18.7589 7.95766 19.0006 7.77467L19.7391 7.21222C19.6049 6.85161 19.5189 6.47217 19.484 6.08195L18.6434 5.96624C18.3426 5.92587 18.1305 5.64599 18.1735 5.34459L18.3292 4.20086C18.3722 3.89946 18.6488 3.68955 18.9496 3.72992L19.868 3.8564C20.0319 3.50117 20.2413 3.17016 20.4857 2.87683L19.9728 2.19867C19.7902 1.95916 19.8358 1.612 20.0775 1.42901L20.9933 0.732008C21.235 0.549012 21.5814 0.594761 21.764 0.836962L22.3253 1.57702C22.6825 1.44246 23.0638 1.35635 23.4532 1.32136L23.5687 0.479043C23.609 0.177638 23.8883 -0.0349606 24.1891 0.00540621L25.3304 0.161491C25.6312 0.201858 25.8434 0.481734 25.8004 0.78314L25.6742 1.7035C26.0314 1.86766 26.359 2.07757 26.6544 2.32515L27.3312 1.81115C27.5729 1.62546 27.9193 1.67121 28.1046 1.91341ZM8.46789 18.0628V13.6225H10.7506C11.1749 13.6225 11.4972 13.6575 11.7201 13.7328C11.943 13.8055 12.1256 13.94 12.2599 14.1365C12.3968 14.3356 12.4667 14.5751 12.4667 14.8577C12.4667 15.1026 12.413 15.3179 12.3082 15.4955C12.2035 15.6758 12.0585 15.8211 11.8759 15.9315C11.7604 16.0014 11.5992 16.0606 11.3951 16.1064C11.559 16.1629 11.6771 16.214 11.7496 16.2705C11.8007 16.3082 11.8732 16.3862 11.9672 16.5047C12.0612 16.6231 12.1256 16.7173 12.1578 16.7818L12.8238 18.0655H11.277L10.5465 16.7119C10.4525 16.537 10.3719 16.4212 10.2994 16.3701C10.2001 16.3028 10.0873 16.2678 9.96374 16.2678H9.84289V18.0655H8.46789V18.0628ZM13.2965 25.7944H10.7399L10.3719 27H8.06775L10.8151 19.6829H13.2858L16.0223 27H13.6591L13.2965 25.7944ZM12.8185 24.2093L12.0209 21.5774L11.2206 24.2093H12.8185ZM16.5541 19.6829H20.3085C21.1276 19.6829 21.7399 19.8766 22.1454 20.2668C22.5509 20.6571 22.755 21.2141 22.755 21.9326C22.755 22.6727 22.5321 23.2513 22.089 23.6684C21.6459 24.0855 20.9664 24.2928 20.056 24.2928H18.818V27H16.5541V19.6829ZM18.818 22.81H19.3739C19.8116 22.81 20.1205 22.7346 20.2977 22.5812C20.475 22.4305 20.5636 22.2341 20.5636 21.9999C20.5636 21.7712 20.4857 21.5747 20.3326 21.416C20.1796 21.2572 19.8895 21.1764 19.4652 21.1764H18.818V22.81ZM23.6681 19.6829H25.932V27H23.6681V19.6829ZM9.84289 15.4255H10.4203C10.4821 15.4255 10.6029 15.404 10.7828 15.3636C10.8741 15.3448 10.9493 15.299 11.0057 15.2237C11.0648 15.1483 11.0917 15.0622 11.0917 14.9653C11.0917 14.8227 11.046 14.7097 10.9547 14.6343C10.8634 14.5563 10.6942 14.5186 10.4445 14.5186H9.84289V15.4255ZM13.087 13.6225H16.7528V14.5697H14.462V15.2775H16.5863V16.1817H14.462V17.0563H16.8199V18.0601H13.087V13.6225ZM17.1449 16.5935L18.4447 16.5127C18.4716 16.7253 18.5306 16.8841 18.6166 16.9944C18.7589 17.1721 18.9603 17.2636 19.2208 17.2636C19.4142 17.2636 19.5673 17.2178 19.672 17.1263C19.7767 17.0348 19.8304 16.9272 19.8304 16.8061C19.8304 16.6903 19.7794 16.5881 19.68 16.4966C19.5807 16.4051 19.347 16.3217 18.9791 16.2382C18.3802 16.1037 17.9532 15.9234 17.6954 15.7C17.4376 15.4767 17.3087 15.1914 17.3087 14.8442C17.3087 14.6155 17.3759 14.4002 17.5074 14.1984C17.639 13.9965 17.8378 13.8351 18.1036 13.7194C18.3695 13.6036 18.7321 13.5471 19.194 13.5471C19.7606 13.5471 20.1903 13.6521 20.4884 13.8647C20.7838 14.0773 20.9611 14.411 21.0175 14.8738L19.7311 14.9519C19.6962 14.75 19.6237 14.602 19.5162 14.5132C19.4061 14.4217 19.253 14.376 19.0624 14.376C18.9039 14.376 18.7831 14.411 18.7025 14.4782C18.6219 14.5455 18.5817 14.6289 18.5817 14.7258C18.5817 14.7958 18.6166 14.8577 18.681 14.9169C18.7455 14.9734 18.8959 15.0299 19.1376 15.0811C19.7364 15.2102 20.1661 15.3421 20.4239 15.474C20.6818 15.6058 20.8724 15.77 20.9879 15.9664C21.1061 16.1602 21.1652 16.3809 21.1652 16.6231C21.1652 16.9083 21.0873 17.1694 20.9288 17.4089C20.7731 17.6484 20.5529 17.8314 20.2709 17.9552C19.9889 18.079 19.6344 18.1409 19.2047 18.1409C18.4528 18.1409 17.9291 17.9955 17.639 17.7049C17.349 17.4089 17.1852 17.0402 17.1449 16.5935ZM21.3639 13.6225H25.5292V14.7204H24.1327V18.0628H22.7631V14.7204H21.3639V13.6225ZM16.7555 3.08405C16.264 3.04637 15.7672 3.05175 15.2758 3.10019C13.7638 3.24551 12.2948 3.79719 11.0809 4.74178C9.67639 5.83168 8.61023 7.4625 8.19934 9.62347L8.07043 10.2989L7.39904 10.4173C6.74109 10.5331 6.15295 10.6918 5.63733 10.8937C5.13781 11.0874 4.69201 11.3269 4.30261 11.6095C3.99109 11.8356 3.72253 12.0885 3.49426 12.363C2.78796 13.2107 2.46032 14.2737 2.46838 15.3502C2.47644 16.4428 2.83093 17.5461 3.4862 18.453C3.73059 18.7894 4.01257 19.0989 4.33484 19.368C4.66247 19.6398 5.03039 19.8659 5.44397 20.0354C5.67761 20.1323 5.92736 20.213 6.18786 20.2776V22.2933C5.65075 22.1964 5.15661 22.0511 4.6947 21.86C4.08508 21.607 3.54528 21.2814 3.06994 20.8831C2.61877 20.5064 2.22399 20.0785 1.8883 19.6129C0.994014 18.375 0.510616 16.8626 0.499874 15.3556C0.489132 13.8324 0.961788 12.3173 1.9823 11.0901C2.31262 10.6918 2.70202 10.3258 3.14782 10.0029C3.66613 9.62616 4.25964 9.30861 4.93103 9.04757C5.39294 8.86726 5.88708 8.71656 6.40808 8.59546C6.9989 6.24342 8.25842 4.4323 9.8778 3.17554C11.3925 1.99953 13.2159 1.31329 15.0931 1.13299C16.0787 1.0388 17.0778 1.08185 18.0553 1.26485C18.0338 1.35366 18.015 1.44246 18.0043 1.53396L18.0016 1.55011C17.9828 1.7035 17.9747 1.8569 17.9828 2.01298C17.776 2.09371 17.5826 2.20405 17.4081 2.33861L17.4 2.34399C17.1395 2.54044 16.9193 2.79341 16.7555 3.08405ZM30.9647 8.251C31.1151 8.38824 31.2601 8.53087 31.4025 8.68427C31.6898 8.99374 31.9611 9.34359 32.2162 9.7338C33.0756 11.0578 33.516 12.8259 33.4972 14.5563C33.4784 16.2544 33.0219 17.9444 32.0873 19.1877C31.4777 19.9977 30.6962 20.6597 29.7589 21.1845C29.1171 21.5451 28.3947 21.8438 27.6078 22.086V20.0004C28.0321 19.8416 28.4269 19.664 28.7894 19.4622C29.4957 19.0666 30.0731 18.5849 30.5055 18.0063C31.1769 17.1102 31.5072 15.8426 31.5206 14.5428C31.5367 13.1784 31.2037 11.8087 30.5565 10.8129C30.3712 10.525 30.1671 10.2666 29.9523 10.0352C29.869 9.9464 29.7858 9.86298 29.6998 9.78224C29.7133 9.64769 29.7186 9.51044 29.7106 9.37319C29.9174 9.29246 30.1107 9.18212 30.2853 9.04757L30.2933 9.04218C30.5699 8.82959 30.8009 8.56047 30.9647 8.251ZM24.1542 3.44466C25.3922 3.6142 26.257 4.75792 26.0878 5.99853C25.9186 7.23913 24.7772 8.10837 23.5392 7.93883C22.3011 7.76929 21.4337 6.62556 21.6056 5.38495C21.7775 4.14435 22.9161 3.27512 24.1542 3.44466Z" fill="white"/>
</g>
<defs>
<clipPath id="clip0_8_537">
<rect width="33" height="27" fill="white" transform="translate(0.5)"/>
</clipPath>
</defs>
</svg>
