<?xml version="1.0" encoding="UTF-8"?>
<!DOCTYPE svg PUBLIC "-//W3C//DTD SVG 1.1//EN" "http://www.w3.org/Graphics/SVG/1.1/DTD/svg11.dtd">
<svg xmlns="http://www.w3.org/2000/svg" version="1.1" width="50px" height="50px" style="shape-rendering:geometricPrecision; text-rendering:geometricPrecision; image-rendering:optimizeQuality; fill-rule:evenodd; clip-rule:evenodd" xmlns:xlink="http://www.w3.org/1999/xlink">
<g><path style="opacity:0.694" fill="#fefffe" d="M 15.5,-0.5 C 21.5,-0.5 27.5,-0.5 33.5,-0.5C 37.5919,0.797648 41.4252,2.79765 45,5.5C 45.6667,17.8333 45.6667,30.1667 45,42.5C 39.0069,47.2084 32.1735,49.2084 24.5,48.5C 16.8265,49.2084 9.99312,47.2084 4,42.5C 3.33333,30.1667 3.33333,17.8333 4,5.5C 7.57481,2.79765 11.4081,0.797648 15.5,-0.5 Z M 15.5,2.5 C 22.5736,2.16102 29.5736,2.66102 36.5,4C 40.7703,4.91174 42.6037,7.41174 42,11.5C 39.2934,13.9363 36.1267,15.4363 32.5,16C 24.1611,17.3151 16.1611,16.3151 8.5,13C 5.83333,10.6667 5.83333,8.33333 8.5,6C 10.9252,4.78739 13.2585,3.62073 15.5,2.5 Z M 5.5,15.5 C 17.8339,20.7964 30.1672,20.7964 42.5,15.5C 43.7349,20.4749 41.7349,23.6416 36.5,25C 26.8984,27.4836 17.5651,26.8169 8.5,23C 6.25297,21.005 5.25297,18.505 5.5,15.5 Z M 5.5,25.5 C 17.8339,30.7964 30.1672,30.7964 42.5,25.5C 43.7349,30.4749 41.7349,33.6416 36.5,35C 26.8984,37.4836 17.5651,36.8169 8.5,33C 6.25297,31.005 5.25297,28.505 5.5,25.5 Z M 5.5,35.5 C 17.8339,40.7964 30.1672,40.7964 42.5,35.5C 43.2657,39.9505 41.2657,42.7839 36.5,44C 26.8984,46.4836 17.5651,45.8169 8.5,42C 6.54937,40.2658 5.54937,38.0991 5.5,35.5 Z"/></g>
</svg>
