<svg width="29" height="21" viewBox="0 0 29 21" fill="none" xmlns="http://www.w3.org/2000/svg">
<g clip-path="url(#clip0_8_436)">
<mask id="mask0_8_436" style="mask-type:luminance" maskUnits="userSpaceOnUse" x="0" y="0" width="29" height="20">
<path d="M0 0.248291H29V19.8847H0V0.248291Z" fill="white"/>
</mask>
<g mask="url(#mask0_8_436)">
<path fill-rule="evenodd" clip-rule="evenodd" d="M14.5 0.248291C10.6333 0.248291 8.21667 2.43011 7.25 6.79375C8.7 4.61193 10.3917 3.79375 12.325 4.3392C13.4281 4.65011 14.2164 5.55375 15.0891 6.55314C16.5107 8.18162 18.1561 10.0665 21.75 10.0665C25.6167 10.0665 28.0333 7.88465 29 3.52102C27.55 5.70284 25.8583 6.52102 23.925 5.97556C22.8219 5.66465 22.0336 4.76102 21.1609 3.76162C19.7393 2.13314 18.0939 0.248291 14.5 0.248291ZM7.25 10.0665C3.38333 10.0665 0.966667 12.2483 0 16.6119C1.45 14.4301 3.14167 13.6119 5.075 14.1574C6.17807 14.4689 6.96644 15.3719 7.83913 16.3713C9.26067 17.9998 10.9061 19.8847 14.5 19.8847C18.3667 19.8847 20.7833 17.7028 21.75 13.3392C20.3 15.521 18.6083 16.3392 16.675 15.7937C15.5719 15.4828 14.7836 14.5792 13.9109 13.5798C12.4893 11.9513 10.8439 10.0665 7.25 10.0665Z" fill="#38BDF8"/>
</g>
</g>
<defs>
<clipPath id="clip0_8_436">
<rect width="29" height="20" fill="white" transform="translate(0 0.248291)"/>
</clipPath>
</defs>
</svg>
