<svg width="32" height="21" viewBox="0 0 32 21" fill="none" xmlns="http://www.w3.org/2000/svg">
<g clip-path="url(#clip0_8_761)">
<path d="M3.3771 0H28.6106C30.2075 0 31.5003 1.4652 31.5003 3.27531V14.1928C31.5003 16.0028 30.2076 17.4682 28.6106 17.4682H19.5616L20.8037 20.9157L15.3413 17.4682H3.38994C1.79307 17.4682 0.500276 16.003 0.500276 14.1928V3.27531C0.487602 1.47961 1.78024 0 3.3771 0Z" fill="#7F54B3"/>
<path d="M2.26533 2.9852C2.44175 2.71382 2.70639 2.57097 3.05923 2.54241C3.70191 2.48528 4.06736 2.82808 4.15558 3.57082C4.54623 6.55612 4.97468 9.08421 5.42839 11.1554L8.18812 5.19921C8.44015 4.65644 8.75519 4.37077 9.13324 4.34221C9.68772 4.29936 10.028 4.69929 10.1666 5.54202C10.4816 7.44177 10.8849 9.05575 11.3637 10.4269C11.6914 6.79886 12.2459 4.18512 13.0272 2.571C13.2162 2.17107 13.4935 1.9711 13.8589 1.94253C14.1487 1.91396 14.4134 2.01394 14.6528 2.22819C14.8922 2.44245 15.0183 2.71383 15.0435 3.04235C15.0561 3.29945 15.0183 3.5137 14.9174 3.72795C14.426 4.75636 14.0227 6.48472 13.6951 8.88421C13.3801 11.2125 13.2667 13.0264 13.3423 14.3262C13.3675 14.6833 13.3171 14.9976 13.191 15.2689C13.0398 15.5832 12.813 15.7546 12.5232 15.7831C12.1955 15.8117 11.8553 15.6403 11.5276 15.2546C10.3557 13.8977 9.42316 11.8695 8.74273 9.16986C7.92363 10.9981 7.31879 12.3694 6.92814 13.2835C6.18465 14.8975 5.55457 15.726 5.02527 15.7688C4.68502 15.7974 4.39519 15.4688 4.14315 14.7832C3.50047 12.912 2.80737 9.2984 2.06385 3.94216C2.01345 3.57079 2.08906 3.24227 2.26547 2.98517L2.26533 2.9852ZM29.3467 5.22767C28.8931 4.32781 28.2252 3.78498 27.3305 3.57073C27.0911 3.51359 26.8643 3.48502 26.65 3.48502C25.4403 3.48502 24.4574 4.1992 23.6887 5.62757C23.0334 6.84166 22.7058 8.18436 22.7058 9.65546C22.7058 10.7553 22.9074 11.6979 23.3106 12.4836C23.7643 13.3834 24.4322 13.9263 25.3268 14.1405C25.5663 14.1977 25.7931 14.2262 26.0073 14.2262C27.2297 14.2262 28.2126 13.5121 28.9687 12.0837C29.624 10.8553 29.9516 9.51263 29.9516 8.04153C29.9642 6.92742 29.75 5.99904 29.3467 5.22767ZM27.759 9.18418C27.5825 10.1269 27.2675 10.8267 26.8012 11.2982C26.4358 11.6695 26.0955 11.8267 25.7805 11.7552C25.4781 11.6838 25.226 11.3839 25.037 10.8268C24.8858 10.384 24.8102 9.94126 24.8102 9.52704C24.8102 9.16996 24.8354 8.81286 24.8984 8.48435C25.0118 7.89873 25.226 7.32739 25.5663 6.78459C25.9821 6.0847 26.4232 5.79903 26.8769 5.89902C27.1793 5.97044 27.4313 6.27039 27.6204 6.82744C27.7716 7.27023 27.8472 7.71301 27.8472 8.12723C27.8472 8.4986 27.822 8.85566 27.759 9.18418ZM21.4581 5.22767C21.0044 4.32781 20.3239 3.78498 19.4419 3.57073C19.2024 3.51359 18.9756 3.48502 18.7614 3.48502C17.5516 3.48502 16.5687 4.1992 15.8 5.62757C15.1448 6.84166 14.8171 8.18436 14.8171 9.65546C14.8171 10.7553 15.0187 11.6979 15.422 12.4836C15.8756 13.3834 16.5435 13.9263 17.4382 14.1405C17.6776 14.1977 17.9045 14.2262 18.1187 14.2262C19.341 14.2262 20.3239 13.5121 21.08 12.0837C21.7353 10.8553 22.063 9.51263 22.063 8.04153C22.063 6.92742 21.8613 5.99904 21.4581 5.22767ZM19.8577 9.18418C19.6813 10.1269 19.3662 10.8267 18.9 11.2982C18.5345 11.6695 18.1943 11.8267 17.8793 11.7552C17.5768 11.6838 17.3248 11.3839 17.1358 10.8268C16.9845 10.384 16.9089 9.94126 16.9089 9.52704C16.9089 9.16996 16.9341 8.81286 16.9971 8.48435C17.1106 7.89873 17.3248 7.32739 17.665 6.78459C18.0809 6.0847 18.5219 5.79903 18.9756 5.89902C19.2781 5.97044 19.5301 6.27039 19.7191 6.82744C19.8703 7.27023 19.9459 7.71301 19.9459 8.12723C19.9585 8.4986 19.9207 8.85566 19.8577 9.18418Z" fill="white"/>
</g>
<defs>
<clipPath id="clip0_8_761">
<rect width="31" height="21" fill="white" transform="translate(0.5)"/>
</clipPath>
</defs>
</svg>
