<svg width="23" height="24" viewBox="0 0 23 24" fill="none" xmlns="http://www.w3.org/2000/svg">
<g clip-path="url(#clip0_8_665)">
<path d="M1.6347 11.7481C1.6347 15.6531 3.90411 19.0277 7.19491 20.6269L2.48885 7.73315C1.94145 8.96009 1.6347 10.3179 1.6347 11.7481Z" fill="white"/>
<path d="M18.1605 11.2503C18.1605 10.031 17.7225 9.18667 17.3469 8.52947C16.8468 7.71683 16.378 7.02865 16.378 6.21601C16.378 5.30913 17.0658 4.46496 18.0347 4.46496C18.0784 4.46496 18.1199 4.4704 18.1625 4.47284C16.4073 2.86483 14.0688 1.88306 11.5004 1.88306C8.05375 1.88306 5.02143 3.65138 3.25739 6.32976C3.48885 6.33671 3.70699 6.34159 3.89227 6.34159C4.92419 6.34159 6.52154 6.21638 6.52154 6.21638C7.05336 6.18503 7.11606 6.96613 6.5848 7.02902C6.5848 7.02902 6.05035 7.09191 5.45564 7.12307L9.04831 17.809L11.2073 11.334L9.67024 7.12269C9.13898 7.09153 8.63569 7.02865 8.63569 7.02865C8.10406 6.99748 8.16638 6.18466 8.69802 6.21601C8.69802 6.21601 10.3273 6.34122 11.2967 6.34122C12.3284 6.34122 13.926 6.21601 13.926 6.21601C14.4582 6.18466 14.5207 6.96576 13.9892 7.02865C13.9892 7.02865 13.4536 7.09153 12.8601 7.12269L16.4253 17.7277L17.4094 14.4395C17.8359 13.0749 18.1605 12.0948 18.1605 11.2503Z" fill="white"/>
<path d="M11.6735 12.6108L8.71344 21.212C9.59725 21.4718 10.5319 21.6139 11.5004 21.6139C12.6493 21.6139 13.751 21.4153 14.7766 21.0547C14.7501 21.0124 14.7261 20.9676 14.7064 20.9188L11.6735 12.6108Z" fill="white"/>
<path d="M20.1571 7.01489C20.1995 7.32914 20.2235 7.66647 20.2235 8.02933C20.2235 9.03044 20.0366 10.1558 19.4734 11.563L16.4598 20.2756C19.3928 18.5653 21.3656 15.3878 21.3656 11.7482C21.3658 10.0331 20.9277 8.42016 20.1571 7.01489Z" fill="white"/>
<path d="M11.5004 0.248291C5.15923 0.248291 0 5.40702 0 11.748C0 18.0897 5.15923 23.2483 11.5004 23.2483C17.8413 23.2483 23.0013 18.0897 23.0013 11.748C23.0011 5.40702 17.8413 0.248291 11.5004 0.248291ZM11.5004 22.7212C5.45002 22.7212 0.527318 17.7986 0.527318 11.748C0.527318 5.6978 5.44983 0.775596 11.5004 0.775596C17.5505 0.775596 22.4729 5.6978 22.4729 11.748C22.4729 17.7986 17.5505 22.7212 11.5004 22.7212Z" fill="white"/>
</g>
<defs>
<clipPath id="clip0_8_665">
<rect width="23" height="23" fill="white" transform="translate(0 0.248291)"/>
</clipPath>
</defs>
</svg>
